<svg width="431" height="426" viewBox="0 0 431 426" fill="none" xmlns="http://www.w3.org/2000/svg">
<g filter="url(#filter0_i_157_3450)">
<path d="M336.399 297.632L388.464 189.176C390.997 184.038 390.053 178.538 387.07 174.574L382.855 168.99L166.214 332.507L170.429 338.091C173.423 342.048 178.454 344.463 184.089 343.436L302.662 323.096C317.315 320.425 329.814 310.992 336.399 297.632Z" fill="url(#paint0_linear_157_3450)"/>
</g>
<g filter="url(#filter1_i_157_3450)">
<path d="M217.715 210.552C224.301 197.193 236.8 187.759 251.453 185.088L369.183 163.631C380.467 161.575 389.332 173.321 384.261 183.607L331.353 290.947C324.768 304.306 312.27 313.741 297.617 316.411L179.886 337.867C168.603 339.924 159.737 328.178 164.808 317.891L217.715 210.552Z" fill="url(#paint1_radial_157_3450)"/>
</g>
<g filter="url(#filter2_f_157_3450)">
<path d="M331.353 290.944L384.261 183.606C386.57 178.923 385.991 173.939 383.609 170.092C385.416 177.569 384.659 178.673 382.965 182.858L329.843 289.494C328.244 292.415 323.801 300.227 315.783 306.28C307.764 312.332 299.493 314.116 296.529 314.638C258.779 321.488 182.692 336.106 178.992 336.682C175.292 337.257 170.566 335.826 168.665 335.038C171.627 337.426 175.579 338.651 179.886 337.866L297.617 316.41C312.268 313.738 324.768 304.304 331.353 290.944Z" fill="url(#paint2_linear_157_3450)"/>
</g>
<g filter="url(#filter3_i_157_3450)">
<path d="M159.568 168.388C166.154 155.029 178.653 145.595 193.306 142.924L311.037 121.467C322.32 119.411 331.185 131.156 326.115 141.443L273.206 248.782C266.621 262.141 254.123 271.575 239.469 274.247L121.739 295.703C110.456 297.76 101.59 286.014 106.661 275.727L159.568 168.388Z" fill="#E4E8F3" fill-opacity="0.4"/>
</g>
<g filter="url(#filter4_i_157_3450)">
<path d="M108.067 290.343L112.281 295.926C115.275 299.884 120.307 302.298 125.942 301.271L244.515 280.931C259.168 278.26 271.667 268.826 278.253 255.467L330.317 147.011C332.85 141.875 331.906 136.374 328.923 132.409L324.727 126.85C327.705 130.814 328.645 136.309 326.114 141.443L273.206 248.782C266.621 262.142 254.121 271.576 239.468 274.246L121.738 295.703C116.097 296.73 111.06 294.308 108.067 290.343Z" fill="#E4E8F3" fill-opacity="0.4"/>
</g>
<g filter="url(#filter5_f_157_3450)">
<path d="M273.206 248.78L326.114 141.442C328.423 136.759 327.843 131.775 325.462 127.926C327.269 135.404 326.512 136.509 324.818 140.694L271.696 247.329C270.097 250.251 265.654 258.063 257.636 264.116C249.617 270.168 241.346 271.952 238.381 272.474C200.632 279.324 124.544 293.942 120.844 294.518C117.145 295.093 112.419 293.662 110.518 292.874C113.479 295.261 117.433 296.487 121.738 295.702L239.469 274.245C254.123 271.574 266.621 262.14 273.206 248.78Z" fill="url(#paint3_linear_157_3450)"/>
</g>
<g filter="url(#filter6_i_157_3450)">
<path d="M95.0931 128.685C101.678 115.325 114.177 105.89 128.83 103.22L246.561 81.7631C257.844 79.7068 266.709 91.4524 261.639 101.739L208.73 209.078C202.146 222.438 189.647 231.872 174.994 234.542L57.2627 255.999C45.9797 258.056 37.1143 246.31 42.185 236.023L95.0931 128.685Z" fill="#E4E8F3" fill-opacity="0.4"/>
</g>
<g filter="url(#filter7_i_157_3450)">
<path d="M43.5909 250.639L47.8053 256.222C50.7996 260.179 55.8312 262.594 61.4657 261.567L180.039 241.227C194.692 238.557 207.191 229.122 213.777 215.763L265.842 107.307C268.374 102.17 267.43 96.6694 264.447 92.7053L260.251 87.146C263.229 91.1094 264.169 96.6056 261.638 101.739L208.73 209.078C202.146 222.438 189.645 231.872 174.994 234.542L57.2625 255.998C51.621 257.026 46.5838 254.604 43.5909 250.639Z" fill="#E4E8F3" fill-opacity="0.4"/>
</g>
<g filter="url(#filter8_f_157_3450)">
<path d="M208.73 209.076L261.638 101.738C263.947 97.0554 263.368 92.0706 260.986 88.2229C262.793 95.7002 262.036 96.8056 260.342 100.99L207.22 207.625C205.621 210.547 201.178 218.36 193.16 224.412C185.141 230.464 176.87 232.248 173.906 232.771C136.156 239.62 60.0685 254.238 56.3688 254.814C52.669 255.389 47.9429 253.958 46.0422 253.17C49.0037 255.557 52.9571 256.783 57.2626 255.998L174.994 234.541C189.647 231.87 202.146 222.436 208.73 209.076Z" fill="url(#paint4_linear_157_3450)"/>
</g>
<defs>
<filter id="filter0_i_157_3450" x="166.214" y="168.926" width="223.713" height="174.747" filterUnits="userSpaceOnUse" color-interpolation-filters="sRGB">
<feFlood flood-opacity="0" result="BackgroundImageFix"/>
<feBlend mode="normal" in="SourceGraphic" in2="BackgroundImageFix" result="shape"/>
<feColorMatrix in="SourceAlpha" type="matrix" values="0 0 0 0 0 0 0 0 0 0 0 0 0 0 0 0 0 0 127 0" result="hardAlpha"/>
<feOffset dy="-0.0634005"/>
<feGaussianBlur stdDeviation="0.0634005"/>
<feComposite in2="hardAlpha" operator="arithmetic" k2="-1" k3="1"/>
<feColorMatrix type="matrix" values="0 0 0 0 0 0 0 0 0 0 0 0 0 0 0 0 0 0 0.15 0"/>
<feBlend mode="darken" in2="shape" result="effect1_innerShadow_157_3450"/>
</filter>
<filter id="filter1_i_157_3450" x="163.345" y="163.395" width="222.378" height="174.772" filterUnits="userSpaceOnUse" color-interpolation-filters="sRGB">
<feFlood flood-opacity="0" result="BackgroundImageFix"/>
<feBlend mode="normal" in="SourceGraphic" in2="BackgroundImageFix" result="shape"/>
<feColorMatrix in="SourceAlpha" type="matrix" values="0 0 0 0 0 0 0 0 0 0 0 0 0 0 0 0 0 0 127 0" result="hardAlpha"/>
<feOffset dy="0.0634005"/>
<feGaussianBlur stdDeviation="0.0634005"/>
<feComposite in2="hardAlpha" operator="arithmetic" k2="-1" k3="1"/>
<feColorMatrix type="matrix" values="0 0 0 0 0 0 0 0 0 0 0 0 0 0 0 0 0 0 0.1 0"/>
<feBlend mode="darken" in2="shape" result="effect1_innerShadow_157_3450"/>
</filter>
<filter id="filter2_f_157_3450" x="168.538" y="169.965" width="217.313" height="168.265" filterUnits="userSpaceOnUse" color-interpolation-filters="sRGB">
<feFlood flood-opacity="0" result="BackgroundImageFix"/>
<feBlend mode="normal" in="SourceGraphic" in2="BackgroundImageFix" result="shape"/>
<feGaussianBlur stdDeviation="0.0634005" result="effect1_foregroundBlur_157_3450"/>
</filter>
<filter id="filter3_i_157_3450" x="105.198" y="121.23" width="222.379" height="174.773" filterUnits="userSpaceOnUse" color-interpolation-filters="sRGB">
<feFlood flood-opacity="0" result="BackgroundImageFix"/>
<feBlend mode="normal" in="SourceGraphic" in2="BackgroundImageFix" result="shape"/>
<feColorMatrix in="SourceAlpha" type="matrix" values="0 0 0 0 0 0 0 0 0 0 0 0 0 0 0 0 0 0 127 0" result="hardAlpha"/>
<feOffset dy="0.0634005"/>
<feGaussianBlur stdDeviation="0.0634005"/>
<feComposite in2="hardAlpha" operator="arithmetic" k2="-1" k3="1"/>
<feColorMatrix type="matrix" values="0 0 0 0 0.342674 0 0 0 0 0.352133 0 0 0 0 0.579167 0 0 0 0.1 0"/>
<feBlend mode="darken" in2="shape" result="effect1_innerShadow_157_3450"/>
</filter>
<filter id="filter4_i_157_3450" x="108.067" y="126.787" width="223.713" height="174.721" filterUnits="userSpaceOnUse" color-interpolation-filters="sRGB">
<feFlood flood-opacity="0" result="BackgroundImageFix"/>
<feBlend mode="normal" in="SourceGraphic" in2="BackgroundImageFix" result="shape"/>
<feColorMatrix in="SourceAlpha" type="matrix" values="0 0 0 0 0 0 0 0 0 0 0 0 0 0 0 0 0 0 127 0" result="hardAlpha"/>
<feOffset dy="-0.0634005"/>
<feGaussianBlur stdDeviation="0.0634005"/>
<feComposite in2="hardAlpha" operator="arithmetic" k2="-1" k3="1"/>
<feColorMatrix type="matrix" values="0 0 0 0 0.341176 0 0 0 0 0.352941 0 0 0 0 0.580392 0 0 0 0.25 0"/>
<feBlend mode="darken" in2="shape" result="effect1_innerShadow_157_3450"/>
</filter>
<filter id="filter5_f_157_3450" x="110.391" y="127.799" width="217.313" height="168.266" filterUnits="userSpaceOnUse" color-interpolation-filters="sRGB">
<feFlood flood-opacity="0" result="BackgroundImageFix"/>
<feBlend mode="normal" in="SourceGraphic" in2="BackgroundImageFix" result="shape"/>
<feGaussianBlur stdDeviation="0.0634005" result="effect1_foregroundBlur_157_3450"/>
</filter>
<filter id="filter6_i_157_3450" x="40.7226" y="81.5266" width="222.379" height="174.773" filterUnits="userSpaceOnUse" color-interpolation-filters="sRGB">
<feFlood flood-opacity="0" result="BackgroundImageFix"/>
<feBlend mode="normal" in="SourceGraphic" in2="BackgroundImageFix" result="shape"/>
<feColorMatrix in="SourceAlpha" type="matrix" values="0 0 0 0 0 0 0 0 0 0 0 0 0 0 0 0 0 0 127 0" result="hardAlpha"/>
<feOffset dy="0.0634005"/>
<feGaussianBlur stdDeviation="0.0634005"/>
<feComposite in2="hardAlpha" operator="arithmetic" k2="-1" k3="1"/>
<feColorMatrix type="matrix" values="0 0 0 0 0.342674 0 0 0 0 0.352133 0 0 0 0 0.579167 0 0 0 0.1 0"/>
<feBlend mode="darken" in2="shape" result="effect1_innerShadow_157_3450"/>
</filter>
<filter id="filter7_i_157_3450" x="43.5909" y="87.0826" width="223.713" height="174.721" filterUnits="userSpaceOnUse" color-interpolation-filters="sRGB">
<feFlood flood-opacity="0" result="BackgroundImageFix"/>
<feBlend mode="normal" in="SourceGraphic" in2="BackgroundImageFix" result="shape"/>
<feColorMatrix in="SourceAlpha" type="matrix" values="0 0 0 0 0 0 0 0 0 0 0 0 0 0 0 0 0 0 127 0" result="hardAlpha"/>
<feOffset dy="-0.0634005"/>
<feGaussianBlur stdDeviation="0.0634005"/>
<feComposite in2="hardAlpha" operator="arithmetic" k2="-1" k3="1"/>
<feColorMatrix type="matrix" values="0 0 0 0 0.341176 0 0 0 0 0.352941 0 0 0 0 0.580392 0 0 0 0.25 0"/>
<feBlend mode="darken" in2="shape" result="effect1_innerShadow_157_3450"/>
</filter>
<filter id="filter8_f_157_3450" x="45.9154" y="88.0961" width="217.312" height="168.265" filterUnits="userSpaceOnUse" color-interpolation-filters="sRGB">
<feFlood flood-opacity="0" result="BackgroundImageFix"/>
<feBlend mode="normal" in="SourceGraphic" in2="BackgroundImageFix" result="shape"/>
<feGaussianBlur stdDeviation="0.0634005" result="effect1_foregroundBlur_157_3450"/>
</filter>
<linearGradient id="paint0_linear_157_3450" x1="190.225" y1="364.319" x2="406.866" y2="200.801" gradientUnits="userSpaceOnUse">
<stop stop-color="#D478F4"/>
<stop offset="0.681928" stop-color="#5A217D"/>
<stop offset="1" stop-color="#3E1567"/>
</linearGradient>
<radialGradient id="paint1_radial_157_3450" cx="0" cy="0" r="1" gradientUnits="userSpaceOnUse" gradientTransform="translate(199.65 307.271) rotate(-37.0449) scale(175.131 176.286)">
<stop stop-color="#3F1D75"/>
<stop offset="1" stop-color="#3C0E52"/>
</radialGradient>
<linearGradient id="paint2_linear_157_3450" x1="167.361" y1="333.311" x2="383.609" y2="170.092" gradientUnits="userSpaceOnUse">
<stop stop-color="white" stop-opacity="0.24"/>
<stop offset="0.130208" stop-color="white" stop-opacity="0.865636"/>
<stop offset="0.489583" stop-color="white" stop-opacity="0.494792"/>
<stop offset="1" stop-color="white" stop-opacity="0"/>
</linearGradient>
<linearGradient id="paint3_linear_157_3450" x1="109.214" y1="291.147" x2="325.462" y2="127.926" gradientUnits="userSpaceOnUse">
<stop stop-color="white" stop-opacity="0.24"/>
<stop offset="0.130208" stop-color="white" stop-opacity="0.865636"/>
<stop offset="0.489583" stop-color="white" stop-opacity="0.494792"/>
<stop offset="1" stop-color="white" stop-opacity="0"/>
</linearGradient>
<linearGradient id="paint4_linear_157_3450" x1="44.7387" y1="251.443" x2="260.986" y2="88.2228" gradientUnits="userSpaceOnUse">
<stop stop-color="white" stop-opacity="0.24"/>
<stop offset="0.130208" stop-color="white" stop-opacity="0.865636"/>
<stop offset="0.489583" stop-color="white" stop-opacity="0.494792"/>
<stop offset="1" stop-color="white" stop-opacity="0"/>
</linearGradient>
</defs>
</svg>
