<svg xmlns="http://www.w3.org/2000/svg" width="48" height="48" viewBox="0 0 48 48" fill="none">
  <path d="M14 10V4C14 3.46957 14.2107 2.96086 14.5858 2.58579C14.9609 2.21071 15.4696 2 16 2H32C32.5304 2 33.0391 2.21071 33.4142 2.58579C33.7893 2.96086 34 3.46957 34 4V10H42C42.5304 10 43.0391 10.2107 43.4142 10.5858C43.7893 10.9609 44 11.4696 44 12V40C44 40.5304 43.7893 41.0391 43.4142 41.4142C43.0391 41.7893 42.5304 42 42 42H6C5.46957 42 4.96086 41.7893 4.58579 41.4142C4.21071 41.0391 4 40.5304 4 40V12C4 11.4696 4.21071 10.9609 4.58579 10.5858C4.96086 10.2107 5.46957 10 6 10H14ZM8 32V38H40V32H8ZM8 28H40V14H8V28ZM18 6V10H30V6H18ZM22 22H26V26H22V22Z" fill="white"/>
</svg>