<svg xmlns="http://www.w3.org/2000/svg" width="40" height="41" viewBox="0 0 40 41" fill="none">
  <path d="M35 6.86654H11.6667C10.7826 6.86654 9.93477 7.21773 9.30964 7.84285C8.68452 8.46797 8.33333 9.31581 8.33333 10.1999C8.33333 11.0839 8.68452 11.9318 9.30964 12.5569C9.93477 13.182 10.7826 13.5332 11.6667 13.5332H35V35.1999C35 35.6419 34.8244 36.0658 34.5118 36.3784C34.1993 36.6909 33.7754 36.8665 33.3333 36.8665H11.6667C9.89856 36.8665 8.20286 36.1642 6.95262 34.9139C5.70238 33.6637 5 31.968 5 30.1999V10.1999C5 8.43176 5.70238 6.73607 6.95262 5.48582C8.20286 4.23558 9.89856 3.5332 11.6667 3.5332H33.3333C33.7754 3.5332 34.1993 3.7088 34.5118 4.02136C34.8244 4.33392 35 4.75784 35 5.19987V6.86654ZM8.33333 30.1999C8.33333 31.0839 8.68452 31.9318 9.30964 32.5569C9.93477 33.182 10.7826 33.5332 11.6667 33.5332H31.6667V16.8665H11.6667C10.4964 16.8684 9.34639 16.5608 8.33333 15.9749V30.1999ZM33.3333 11.8665H11.6667C11.2246 11.8665 10.8007 11.6909 10.4882 11.3784C10.1756 11.0658 10 10.6419 10 10.1999C10 9.75784 10.1756 9.33392 10.4882 9.02136C10.8007 8.7088 11.2246 8.5332 11.6667 8.5332H33.3333V11.8665Z" fill="white"/>
</svg>