<svg xmlns="http://www.w3.org/2000/svg" width="48" height="49" viewBox="0 0 48 49" fill="none">
  <path d="M6 6.59998H42C42.5304 6.59998 43.0391 6.81069 43.4142 7.18576C43.7893 7.56083 44 8.06954 44 8.59998V40.6C44 41.1304 43.7893 41.6391 43.4142 42.0142C43.0391 42.3893 42.5304 42.6 42 42.6H6C5.46957 42.6 4.96086 42.3893 4.58579 42.0142C4.21071 41.6391 4 41.1304 4 40.6V8.59998C4 8.06954 4.21071 7.56083 4.58579 7.18576C4.96086 6.81069 5.46957 6.59998 6 6.59998ZM8 10.6V38.6H40V10.6H8ZM24 30.6H36V34.6H24V30.6ZM17.334 24.6L11.676 18.944L14.506 16.114L22.99 24.6L14.506 33.086L11.676 30.256L17.334 24.6Z" fill="white"/>
</svg>