<svg xmlns="http://www.w3.org/2000/svg" width="48" height="49" viewBox="0 0 48 49" fill="none">
  <path d="M19.9464 36.6H28.0544C28.3184 34.196 29.5444 32.212 31.5344 30.046C31.7604 29.802 33.1984 28.312 33.3684 28.1C34.781 26.3353 35.6664 24.2075 35.9226 21.9616C36.1789 19.7157 35.7956 17.4431 34.8169 15.4055C33.8382 13.3679 32.3039 11.6482 30.3906 10.4444C28.4774 9.24059 26.263 8.60166 24.0026 8.60117C21.7421 8.60069 19.5275 9.23868 17.6137 10.4417C15.7 11.6447 14.1649 13.3637 13.1853 15.4009C12.2058 17.4381 11.8215 19.7105 12.0768 21.9565C12.3321 24.2025 13.2166 26.3307 14.6284 28.096C14.8004 28.31 16.2424 29.802 16.4644 30.044C18.4564 32.212 19.6824 34.196 19.9464 36.6ZM28.0004 40.6H20.0004V42.6H28.0004V40.6ZM11.5084 30.6C9.62479 28.2466 8.4443 25.409 8.10294 22.414C7.76157 19.419 8.27321 16.3885 9.57892 13.6715C10.8846 10.9546 12.9313 8.66179 15.4831 7.05721C18.035 5.45264 20.9882 4.60157 24.0026 4.60205C27.017 4.60253 29.9699 5.45455 32.5212 7.05994C35.0726 8.66534 37.1185 10.9588 38.4233 13.6762C39.7282 16.3935 40.2388 19.4242 39.8965 22.4191C39.5542 25.414 38.3728 28.2512 36.4884 30.604C35.2484 32.148 32.0004 34.6 32.0004 37.6V42.6C32.0004 43.6609 31.579 44.6783 30.8288 45.4285C30.0787 46.1786 29.0613 46.6 28.0004 46.6H20.0004C18.9395 46.6 17.9221 46.1786 17.172 45.4285C16.4218 44.6783 16.0004 43.6609 16.0004 42.6V37.6C16.0004 34.6 12.7504 32.148 11.5084 30.6ZM26.0004 20.608H31.0004L22.0004 32.608V24.608H17.0004L26.0004 12.6V20.61V20.608Z" fill="white"/>
</svg>