 <svg xmlns="http://www.w3.org/2000/svg" width="40" height="41" viewBox="0 0 40 41" fill="none">
  <path d="M20 11.8667C23.5362 11.8667 26.9276 13.2715 29.4281 15.772C31.9286 18.2725 33.3333 21.6639 33.3333 25.2001C33.3333 28.7363 31.9286 32.1277 29.4281 34.6282C26.9276 37.1286 23.5362 38.5334 20 38.5334C16.4638 38.5334 13.0724 37.1286 10.5719 34.6282C8.07143 32.1277 6.66667 28.7363 6.66667 25.2001C6.66667 21.6639 8.07143 18.2725 10.5719 15.772C13.0724 13.2715 16.4638 11.8667 20 11.8667V11.8667ZM20 15.2001C17.3478 15.2001 14.8043 16.2536 12.9289 18.129C11.0536 20.0044 10 22.5479 10 25.2001C10 27.8522 11.0536 30.3958 12.9289 32.2711C14.8043 34.1465 17.3478 35.2001 20 35.2001C22.6522 35.2001 25.1957 34.1465 27.0711 32.2711C28.9464 30.3958 30 27.8522 30 25.2001C30 22.5479 28.9464 20.0044 27.0711 18.129C25.1957 16.2536 22.6522 15.2001 20 15.2001ZM20 17.7001L22.205 22.1667L27.1333 22.8834L23.5667 26.3584L24.4083 31.2684L20 28.9501L15.5917 31.2667L16.4333 26.3584L12.8667 22.8817L17.795 22.1651L20 17.7001ZM30 3.53341V8.53341L27.7283 10.4301C25.8432 9.44104 23.7851 8.82479 21.6667 8.61507V3.53341H30ZM18.3333 3.53174V8.61507C16.2156 8.82448 14.158 9.44016 12.2733 10.4284L10 8.53341V3.53341L18.3333 3.53174Z" fill="white"/>
</svg>