<svg xmlns="http://www.w3.org/2000/svg" width="48" height="48" viewBox="0 0 48 48" fill="none">
  <path d="M33.1922 2.08002L45.8862 14.772C46.017 14.9026 46.1091 15.0669 46.1521 15.2466C46.1952 15.4264 46.1877 15.6145 46.1303 15.7902C46.0729 15.9659 45.9679 16.1223 45.827 16.2419C45.6862 16.3616 45.5149 16.4398 45.3322 16.468L42.3842 16.928L31.0722 5.61602L31.4962 2.64602C31.5226 2.46236 31.5995 2.28965 31.7184 2.14722C31.8373 2.00479 31.9935 1.89825 32.1695 1.83951C32.3455 1.78078 32.5344 1.77217 32.715 1.81464C32.8956 1.85711 33.0608 1.949 33.1922 2.08002ZM9.1902 40.3C16.6342 33.638 25.1802 31.644 34.4762 29.26L35.3682 21.224L26.7742 12.63L18.7382 13.522C16.3542 22.818 14.3602 31.362 7.6982 38.808L4.9082 36.02C10.5642 29.42 12.6882 22.114 15.5142 9.85802L28.2422 8.44402L39.5562 19.758L38.1422 32.486C25.8862 35.314 18.5782 37.436 11.9802 43.092L9.1902 40.3ZM19.7582 28.24C19.3762 27.871 19.0714 27.4297 18.8618 26.9416C18.6522 26.4536 18.5418 25.9287 18.5372 25.3976C18.5326 24.8665 18.6338 24.3398 18.8349 23.8482C19.036 23.3566 19.3331 22.91 19.7086 22.5344C20.0842 22.1589 20.5308 21.8619 21.0224 21.6607C21.514 21.4596 22.0407 21.3584 22.5718 21.363C23.1029 21.3676 23.6278 21.478 24.1158 21.6876C24.6038 21.8972 25.0452 22.202 25.4142 22.584C26.1328 23.3401 26.5276 24.3471 26.5145 25.3901C26.5013 26.4332 26.0812 27.4298 25.3437 28.1675C24.6062 28.9053 23.6097 29.3257 22.5667 29.3393C21.5236 29.3528 20.5166 28.9584 19.7602 28.24H19.7582Z" fill="white"/>
</svg>