<svg xmlns="http://www.w3.org/2000/svg" width="48" height="48" viewBox="0 0 48 48" fill="none">
<path d="M14 18C15.3261 18 16.5979 17.4732 17.5355 16.5355C18.4732 15.5979 19 14.3261 19 13C19 11.6739 18.4732 10.4021 17.5355 9.46447C16.5979 8.52678 15.3261 8 14 8C12.6739 8 11.4021 8.52678 10.4645 9.46447C9.52678 10.4021 9 11.6739 9 13C9 14.3261 9.52678 15.5979 10.4645 16.5355C11.4021 17.4732 12.6739 18 14 18ZM14 22C12.8181 22 11.6478 21.7672 10.5558 21.3149C9.46392 20.8626 8.47177 20.1997 7.63604 19.364C6.80031 18.5282 6.13738 17.5361 5.68508 16.4442C5.23279 15.3522 5 14.1819 5 13C5 11.8181 5.23279 10.6478 5.68508 9.55585C6.13738 8.46392 6.80031 7.47177 7.63604 6.63604C8.47177 5.80031 9.46392 5.13738 10.5558 4.68508C11.6478 4.23279 12.8181 4 14 4C16.3869 4 18.6761 4.94821 20.364 6.63604C22.0518 8.32387 23 10.6131 23 13C23 15.3869 22.0518 17.6761 20.364 19.364C18.6761 21.0518 16.3869 22 14 22ZM35 26C36.0609 26 37.0783 25.5786 37.8284 24.8284C38.5786 24.0783 39 23.0609 39 22C39 20.9391 38.5786 19.9217 37.8284 19.1716C37.0783 18.4214 36.0609 18 35 18C33.9391 18 32.9217 18.4214 32.1716 19.1716C31.4214 19.9217 31 20.9391 31 22C31 23.0609 31.4214 24.0783 32.1716 24.8284C32.9217 25.5786 33.9391 26 35 26ZM35 30C32.8783 30 30.8434 29.1571 29.3431 27.6569C27.8429 26.1566 27 24.1217 27 22C27 19.8783 27.8429 17.8434 29.3431 16.3431C30.8434 14.8429 32.8783 14 35 14C37.1217 14 39.1566 14.8429 40.6569 16.3431C42.1571 17.8434 43 19.8783 43 22C43 24.1217 42.1571 26.1566 40.6569 27.6569C39.1566 29.1571 37.1217 30 35 30ZM40 42V41C40 39.6739 39.4732 38.4021 38.5355 37.4645C37.5979 36.5268 36.3261 36 35 36C33.6739 36 32.4021 36.5268 31.4645 37.4645C30.5268 38.4021 30 39.6739 30 41V42H26V41C26 39.8181 26.2328 38.6478 26.6851 37.5558C27.1374 36.4639 27.8003 35.4718 28.636 34.636C29.4718 33.8003 30.4639 33.1374 31.5558 32.6851C32.6478 32.2328 33.8181 32 35 32C36.1819 32 37.3522 32.2328 38.4442 32.6851C39.5361 33.1374 40.5282 33.8003 41.364 34.636C42.1997 35.4718 42.8626 36.4639 43.3149 37.5558C43.7672 38.6478 44 39.8181 44 41V42H40ZM20 42V34C20 32.4087 19.3679 30.8826 18.2426 29.7574C17.1174 28.6321 15.5913 28 14 28C12.4087 28 10.8826 28.6321 9.75736 29.7574C8.63214 30.8826 8 32.4087 8 34V42H4V34C4 31.3478 5.05357 28.8043 6.92893 26.9289C8.8043 25.0536 11.3478 24 14 24C16.6522 24 19.1957 25.0536 21.0711 26.9289C22.9464 28.8043 24 31.3478 24 34V42H20Z" fill="white"/>
</svg>