<svg xmlns="http://www.w3.org/2000/svg" width="48" height="48" viewBox="0 0 48 48" fill="none">
  <path d="M20.9576 23.264L11.9376 9.11998L15.7996 8.08398L29.7016 20.924L40.2256 18.104C40.9942 17.8982 41.8131 18.0061 42.5021 18.4041C43.1911 18.802 43.6938 19.4574 43.8996 20.226C44.1054 20.9946 43.9975 21.8135 43.5995 22.5025C43.2016 23.1915 42.5462 23.6942 41.7776 23.9L11.8336 31.92L10.2816 26.124L10.7636 25.994L15.6976 30.884L10.4456 32.292C10.0149 32.4075 9.55802 32.3757 9.14746 32.2018C8.7369 32.0278 8.39624 31.7217 8.17959 31.332L2.93359 21.88L5.83159 21.104L10.7636 25.994L20.9576 23.262V23.264ZM8.00159 38H40.0016V42H8.00159V38Z" fill="white"/>
</svg>