<svg xmlns="http://www.w3.org/2000/svg" width="48" height="48" viewBox="0 0 48 48" fill="none">
  <path d="M12.47 12.906C9.92008 15.5526 8.359 18.9963 8.04914 22.6583C7.73928 26.3204 8.69954 29.9774 10.7685 33.0148C12.8375 36.0522 15.889 38.2848 19.4102 39.3372C22.9314 40.3897 26.7076 40.1979 30.104 38.794C30.334 37.294 29.83 35.854 29.624 35.35C29.164 34.23 27.648 32.316 25.118 29.662C24.442 28.952 24.486 28.406 24.728 26.788L24.754 26.606C24.918 25.498 25.194 24.842 28.924 24.25C30.82 23.95 31.318 24.706 32.008 25.756L32.24 26.1C32.896 27.06 33.382 27.28 34.116 27.612C34.446 27.762 34.856 27.952 35.406 28.262C36.71 29.008 36.71 29.85 36.71 31.694V31.904C36.71 32.686 36.634 33.374 36.514 33.972C38.0487 32.0458 39.1182 29.7915 39.6392 27.3844C40.1601 24.9773 40.1186 22.4824 39.5176 20.0941C38.9167 17.7057 37.7727 15.4882 36.1746 13.6143C34.5765 11.7403 32.5675 10.2605 30.304 9.29C29.198 10.036 27.68 11.094 27.15 11.82C26.88 12.19 26.496 14.084 25.25 14.24C24.926 14.28 24.488 14.252 24.024 14.222C22.78 14.142 21.08 14.032 20.536 15.51C20.19 16.446 20.13 18.99 21.248 20.31C21.428 20.52 21.462 20.91 21.34 21.348C21.18 21.922 20.858 22.272 20.756 22.344C20.564 22.232 20.18 21.786 19.918 21.484C19.292 20.754 18.508 19.844 17.496 19.564C17.128 19.462 16.724 19.378 16.33 19.294C15.232 19.064 13.99 18.802 13.7 18.186C13.488 17.734 13.49 17.112 13.49 16.456C13.49 15.622 13.49 14.68 13.082 13.766C12.9402 13.4398 12.7317 13.1469 12.47 12.906ZM24 44C12.954 44 4 35.046 4 24C4 12.954 12.954 4 24 4C35.046 4 44 12.954 44 24C44 35.046 35.046 44 24 44Z" fill="white"/>
</svg>