<svg xmlns="http://www.w3.org/2000/svg" width="48" height="48" viewBox="0 0 48 48" fill="none">
  <path d="M4 24.0001C4 22.2701 4.22 20.5941 4.632 18.9921C5.73693 19.0502 6.8364 18.8016 7.80888 18.2739C8.78136 17.7461 9.58896 16.9597 10.1424 16.0016C10.6959 15.0435 10.9736 13.951 10.9449 12.845C10.9163 11.7389 10.5823 10.6623 9.98 9.73412C12.3979 7.35526 15.3816 5.63111 18.65 4.72412C19.152 5.71107 19.9173 6.53986 20.8612 7.11874C21.8051 7.69763 22.8907 8.00403 23.998 8.00403C25.1053 8.00403 26.1909 7.69763 27.1348 7.11874C28.0787 6.53986 28.844 5.71107 29.346 4.72412C32.6144 5.63111 35.5981 7.35526 38.016 9.73412C37.413 10.6624 37.0785 11.7395 37.0497 12.8461C37.0208 13.9526 37.2986 15.0457 37.8524 16.0041C38.4062 16.9626 39.2143 17.7493 40.1874 18.277C41.1605 18.8046 42.2606 19.0529 43.366 18.9941C43.778 20.5941 43.998 22.2701 43.998 24.0001C43.998 25.7301 43.778 27.4061 43.366 29.0081C42.2609 28.9496 41.1612 29.1979 40.1884 29.7255C39.2156 30.2532 38.4077 31.0395 37.854 31.9977C37.3003 32.9558 37.0224 34.0485 37.051 35.1547C37.0796 36.261 37.4135 37.3378 38.016 38.2661C35.5981 40.645 32.6144 42.3691 29.346 43.2761C28.844 42.2892 28.0787 41.4604 27.1348 40.8815C26.1909 40.3026 25.1053 39.9962 23.998 39.9962C22.8907 39.9962 21.8051 40.3026 20.8612 40.8815C19.9173 41.4604 19.152 42.2892 18.65 43.2761C15.3816 42.3691 12.3979 40.645 9.98 38.2661C10.583 37.3378 10.9175 36.2608 10.9463 35.1542C10.9752 34.0476 10.6974 32.9546 10.1436 31.9961C9.58985 31.0376 8.78171 30.251 7.80861 29.7233C6.83552 29.1956 5.73541 28.9474 4.63 29.0061C4.22 27.4081 4 25.7321 4 24.0001ZM13.608 30.0001C14.868 32.1821 15.228 34.6921 14.736 37.0481C15.552 37.6281 16.42 38.1301 17.33 38.5481C19.1633 36.9058 21.5386 35.9984 24 36.0001C26.52 36.0001 28.876 36.9421 30.67 38.5481C31.58 38.1301 32.448 37.6281 33.264 37.0481C32.7589 34.6401 33.1605 32.1303 34.392 30.0001C35.6213 27.8689 37.594 26.2664 39.932 25.5001C40.0245 24.5023 40.0245 23.498 39.932 22.5001C37.5933 21.7342 35.6197 20.1318 34.39 18.0001C33.1586 15.87 32.7569 13.3602 33.262 10.9521C32.4462 10.372 31.5777 9.86976 30.668 9.45212C28.8352 11.094 26.4607 12.0013 24 12.0001C21.5386 12.0018 19.1633 11.0944 17.33 9.45212C16.4203 9.86977 15.5518 10.372 14.736 10.9521C15.2411 13.3602 14.8394 15.87 13.608 18.0001C12.3787 20.1314 10.406 21.7338 8.068 22.5001C7.97551 23.498 7.97551 24.5023 8.068 25.5001C10.4067 26.266 12.3803 27.8685 13.61 30.0001H13.608ZM24 30.0001C22.4087 30.0001 20.8826 29.368 19.7574 28.2428C18.6321 27.1175 18 25.5914 18 24.0001C18 22.4088 18.6321 20.8827 19.7574 19.7575C20.8826 18.6323 22.4087 18.0001 24 18.0001C25.5913 18.0001 27.1174 18.6323 28.2426 19.7575C29.3679 20.8827 30 22.4088 30 24.0001C30 25.5914 29.3679 27.1175 28.2426 28.2428C27.1174 29.368 25.5913 30.0001 24 30.0001ZM24 26.0001C24.5304 26.0001 25.0391 25.7894 25.4142 25.4143C25.7893 25.0393 26 24.5306 26 24.0001C26 23.4697 25.7893 22.961 25.4142 22.5859C25.0391 22.2108 24.5304 22.0001 24 22.0001C23.4696 22.0001 22.9609 22.2108 22.5858 22.5859C22.2107 22.961 22 23.4697 22 24.0001C22 24.5306 22.2107 25.0393 22.5858 25.4143C22.9609 25.7894 23.4696 26.0001 24 26.0001Z" fill="white"/>
</svg>