<svg xmlns="http://www.w3.org/2000/svg" width="48" height="48" viewBox="0 0 48 48" fill="none">
  <path d="M2 44.0001C2 39.7566 3.68571 35.687 6.68629 32.6864C9.68687 29.6858 13.7565 28.0001 18 28.0001C22.2435 28.0001 26.3131 29.6858 29.3137 32.6864C32.3143 35.687 34 39.7566 34 44.0001H30C30 40.8175 28.7357 37.7653 26.4853 35.5148C24.2348 33.2644 21.1826 32.0001 18 32.0001C14.8174 32.0001 11.7652 33.2644 9.51472 35.5148C7.26428 37.7653 6 40.8175 6 44.0001H2ZM18 26.0001C11.37 26.0001 6 20.6301 6 14.0001C6 7.37012 11.37 2.00012 18 2.00012C24.63 2.00012 30 7.37012 30 14.0001C30 20.6301 24.63 26.0001 18 26.0001ZM18 22.0001C22.42 22.0001 26 18.4201 26 14.0001C26 9.58012 22.42 6.00012 18 6.00012C13.58 6.00012 10 9.58012 10 14.0001C10 18.4201 13.58 22.0001 18 22.0001ZM43.096 1.56812C45.0124 5.43177 46.0065 9.6873 46 14.0001C46 18.4661 44.954 22.6881 43.096 26.4321L39.806 24.0401C41.2564 20.892 42.005 17.4662 42 14.0001C42 10.4161 41.214 7.01412 39.806 3.96012L43.096 1.56812ZM36.492 6.36812C37.4909 8.78843 38.0033 11.3818 38 14.0001C38.0033 16.6185 37.4909 19.2118 36.492 21.6321L33.138 19.1921C33.7103 17.521 34.0016 15.7665 34 14.0001C34.0022 12.2338 33.7116 10.4794 33.14 8.80812L36.492 6.36812Z" fill="white"/>
</svg>