<svg xmlns="http://www.w3.org/2000/svg" width="48" height="49" viewBox="0 0 48 49" fill="none">
  <path d="M26.0008 42.6002H36.0008V46.6002H12.0008V42.6002H22.0008V40.5002C18.8298 40.1818 15.7807 39.1103 13.1075 37.3751C10.4344 35.6398 8.2145 33.291 6.63281 30.5242L10.1068 28.5402C11.3284 30.6747 13.0256 32.4989 15.0665 33.871C17.1075 35.2432 19.4373 36.1264 21.875 36.452C24.3126 36.7776 26.7926 36.537 29.1222 35.7486C31.4517 34.9603 33.5682 33.6456 35.3072 31.9066C37.0462 30.1676 38.361 28.0511 39.1493 25.7215C39.9376 23.3919 40.1783 20.912 39.8526 18.4743C39.527 16.0366 38.6438 13.7068 37.2716 11.6659C35.8995 9.62492 34.0753 7.92774 31.9408 6.70618L33.9248 3.23218C36.9869 4.98127 39.5318 7.50919 41.3014 10.5594C43.071 13.6097 44.0023 17.0738 44.0008 20.6002C44.0008 30.9702 36.1068 39.4982 26.0008 40.5002V42.6002ZM24.0008 34.6002C22.1623 34.6002 20.3418 34.2381 18.6432 33.5345C16.9447 32.8309 15.4013 31.7997 14.1013 30.4997C12.8013 29.1997 11.7701 27.6563 11.0665 25.9577C10.3629 24.2592 10.0008 22.4387 10.0008 20.6002C10.0008 18.7617 10.3629 16.9412 11.0665 15.2426C11.7701 13.5441 12.8013 12.0007 14.1013 10.7007C15.4013 9.40066 16.9447 8.36943 18.6432 7.66586C20.3418 6.9623 22.1623 6.60018 24.0008 6.60018C27.7138 6.60018 31.2748 8.07517 33.9003 10.7007C36.5258 13.3262 38.0008 16.8871 38.0008 20.6002C38.0008 24.3132 36.5258 27.8742 33.9003 30.4997C31.2748 33.1252 27.7138 34.6002 24.0008 34.6002ZM24.0008 30.6002C26.653 30.6002 29.1965 29.5466 31.0719 27.6712C32.9472 25.7959 34.0008 23.2523 34.0008 20.6002C34.0008 17.948 32.9472 15.4045 31.0719 13.5291C29.1965 11.6537 26.653 10.6002 24.0008 10.6002C21.3486 10.6002 18.8051 11.6537 16.9297 13.5291C15.0544 15.4045 14.0008 17.948 14.0008 20.6002C14.0008 23.2523 15.0544 25.7959 16.9297 27.6712C18.8051 29.5466 21.3486 30.6002 24.0008 30.6002Z" fill="white"/>
</svg>