<svg xmlns="http://www.w3.org/2000/svg" width="48" height="49" viewBox="0 0 48 49" fill="none">
  <path d="M26 42.6V47.6L20 43.6L14 47.6V42.6H13C11.1435 42.6 9.36301 41.8625 8.05025 40.5497C6.7375 39.237 6 37.4565 6 35.6V10.6C6 9.00868 6.63214 7.48255 7.75736 6.35734C8.88258 5.23212 10.4087 4.59998 12 4.59998H40C40.5304 4.59998 41.0391 4.81069 41.4142 5.18576C41.7893 5.56083 42 6.06954 42 6.59998V40.6C42 41.1304 41.7893 41.6391 41.4142 42.0142C41.0391 42.3893 40.5304 42.6 40 42.6H26ZM26 38.6H38V32.6H13C12.2044 32.6 11.4413 32.916 10.8787 33.4787C10.3161 34.0413 10 34.8043 10 35.6C10 36.3956 10.3161 37.1587 10.8787 37.7213C11.4413 38.2839 12.2044 38.6 13 38.6H14V34.6H26V38.6ZM38 28.6V8.59998H12V28.67C12.3313 28.623 12.6654 28.5996 13 28.6H38ZM14 10.6H18V14.6H14V10.6ZM14 16.6H18V20.6H14V16.6ZM14 22.6H18V26.6H14V22.6Z" fill="white"/>
</svg>