<svg xmlns="http://www.w3.org/2000/svg" width="48" height="48" viewBox="0 0 48 48" fill="none">
  <path d="M24 44C12.954 44 4 35.046 4 24C4 12.954 12.954 4 24 4C35.046 4 44 12.954 44 24C44 35.046 35.046 44 24 44ZM19.42 39.334C17.4468 35.1486 16.3037 30.6204 16.054 26H8.124C8.51317 29.0778 9.78784 31.9763 11.7931 34.3434C13.7984 36.7105 16.448 38.4442 19.42 39.334ZM20.06 26C20.362 30.878 21.756 35.46 24 39.504C26.3046 35.3531 27.6509 30.739 27.94 26H20.06ZM39.876 26H31.946C31.6963 30.6204 30.5532 35.1486 28.58 39.334C31.552 38.4442 34.2016 36.7105 36.2069 34.3434C38.2122 31.9763 39.4868 29.0778 39.876 26ZM8.124 22H16.054C16.3037 17.3796 17.4468 12.8514 19.42 8.666C16.448 9.55576 13.7984 11.2895 11.7931 13.6566C9.78784 16.0237 8.51317 18.9222 8.124 22ZM20.062 22H27.938C27.6495 17.2612 26.3039 12.6471 24 8.496C21.6954 12.6469 20.3491 17.261 20.06 22H20.062ZM28.58 8.666C30.5532 12.8514 31.6963 17.3796 31.946 22H39.876C39.4868 18.9222 38.2122 16.0237 36.2069 13.6566C34.2016 11.2895 31.552 9.55576 28.58 8.666Z" fill="white"/>
</svg>