<svg xmlns="http://www.w3.org/2000/svg" width="32" height="33" viewBox="0 0 32 33" fill="none">
  <g clip-path="url(#clip0_2002_1332)">
    <path fill-rule="evenodd" clip-rule="evenodd" d="M32 16.6001C32 25.4367 24.8366 32.6001 16 32.6001C7.16344 32.6001 0 25.4367 0 16.6001C0 7.76354 7.16344 0.600098 16 0.600098C24.8366 0.600098 32 7.76354 32 16.6001ZM16.5734 12.412C15.0171 13.0593 11.9068 14.399 7.24252 16.4312C6.48511 16.7324 6.08834 17.0271 6.05222 17.3152C5.99118 17.8021 6.60095 17.9938 7.43129 18.2549C7.54424 18.2904 7.66127 18.3272 7.78125 18.3662C8.59818 18.6318 9.6971 18.9425 10.2684 18.9548C10.7866 18.966 11.365 18.7524 12.0035 18.3139C16.3615 15.3721 18.6112 13.8852 18.7524 13.8531C18.8521 13.8305 18.9901 13.8021 19.0837 13.8852C19.1772 13.9684 19.168 14.1259 19.1581 14.1681C19.0977 14.4256 16.7042 16.6509 15.4655 17.8025C15.0793 18.1615 14.8054 18.4161 14.7494 18.4743C14.624 18.6046 14.4962 18.7278 14.3733 18.8462C13.6144 19.5779 13.0452 20.1265 14.4048 21.0225C15.0582 21.453 15.581 21.8091 16.1026 22.1643C16.6722 22.5522 17.2404 22.9391 17.9755 23.421C18.1628 23.5438 18.3416 23.6713 18.5159 23.7955C19.1788 24.2681 19.7743 24.6926 20.5101 24.6249C20.9377 24.5856 21.3793 24.1836 21.6036 22.9846C22.1336 20.151 23.1755 14.0114 23.4163 11.4814C23.4374 11.2597 23.4108 10.9761 23.3895 10.8515C23.3682 10.727 23.3237 10.5496 23.1618 10.4182C22.9701 10.2627 22.6742 10.2299 22.5418 10.2322C21.94 10.2428 21.0167 10.5639 16.5734 12.412Z" fill="white"/>
  </g>
  <defs>
    <clipPath id="clip0_2002_1332">
      <rect width="32" height="32" fill="white" transform="translate(0 0.600098)"/>
    </clipPath>
  </defs>
</svg>