<svg xmlns="http://www.w3.org/2000/svg" width="32" height="33" viewBox="0 0 32 33" fill="none">
  <path d="M0 32.6001L2.24933 24.3828C0.861333 21.9774 0.132 19.2508 0.133333 16.4548C0.137333 7.71343 7.25067 0.600098 15.9907 0.600098C20.232 0.601431 24.2133 2.25343 27.208 5.25076C30.2013 8.2481 31.8493 12.2321 31.848 16.4694C31.844 25.2121 24.7307 32.3254 15.9907 32.3254C13.3373 32.3241 10.7227 31.6588 8.40667 30.3948L0 32.6001ZM8.796 27.5241C11.0307 28.8508 13.164 29.6454 15.9853 29.6468C23.2493 29.6468 29.1667 23.7348 29.1707 16.4668C29.1733 9.1841 23.284 3.2801 15.996 3.27743C8.72667 3.27743 2.81333 9.18943 2.81067 16.4561C2.80933 19.4228 3.67867 21.6441 5.13867 23.9681L3.80667 28.8321L8.796 27.5241ZM23.9787 20.2388C23.88 20.0734 23.616 19.9748 23.2187 19.7761C22.8227 19.5774 20.8747 18.6188 20.5107 18.4868C20.148 18.3548 19.884 18.2881 19.6187 18.6854C19.3547 19.0814 18.5947 19.9748 18.364 20.2388C18.1333 20.5028 17.9013 20.5361 17.5053 20.3374C17.1093 20.1388 15.832 19.7214 14.3187 18.3708C13.1413 17.3201 12.3453 16.0228 12.1147 15.6254C11.884 15.2294 12.0907 15.0148 12.288 14.8174C12.4667 14.6401 12.684 14.3548 12.8827 14.1228C13.084 13.8934 13.1493 13.7281 13.2827 13.4628C13.4147 13.1988 13.3493 12.9668 13.2493 12.7681C13.1493 12.5708 12.3573 10.6201 12.028 9.82677C11.7053 9.05476 11.3787 9.15876 11.136 9.14676L10.376 9.13343C10.112 9.13343 9.68267 9.2321 9.32 9.62943C8.95733 10.0268 7.93333 10.9841 7.93333 12.9348C7.93333 14.8854 9.35333 16.7694 9.55067 17.0334C9.74933 17.2974 12.344 21.3001 16.3187 23.0161C17.264 23.4241 18.0027 23.6681 18.5773 23.8508C19.5267 24.1521 20.3907 24.1094 21.0733 24.0081C21.8347 23.8948 23.4173 23.0494 23.748 22.1241C24.0787 21.1974 24.0787 20.4041 23.9787 20.2388Z" fill="white"/>
</svg>