<svg xmlns="http://www.w3.org/2000/svg" width="24" height="25" viewBox="0 0 24 25" fill="none">
  <path d="M17 3.59998H21C21.2652 3.59998 21.5196 3.70533 21.7071 3.89287C21.8946 4.08041 22 4.33476 22 4.59998V20.6C22 20.8652 21.8946 21.1195 21.7071 21.3071C21.5196 21.4946 21.2652 21.6 21 21.6H3C2.73478 21.6 2.48043 21.4946 2.29289 21.3071C2.10536 21.1195 2 20.8652 2 20.6V4.59998C2 4.33476 2.10536 4.08041 2.29289 3.89287C2.48043 3.70533 2.73478 3.59998 3 3.59998H7V1.59998H9V3.59998H15V1.59998H17V3.59998ZM20 9.59998V5.59998H17V7.59998H15V5.59998H9V7.59998H7V5.59998H4V9.59998H20ZM20 11.6H4V19.6H20V11.6ZM6 13.6H11V17.6H6V13.6Z" fill="white"/>
</svg>