<svg xmlns="http://www.w3.org/2000/svg" width="24" height="25" viewBox="0 0 24 25" fill="none">
  <path d="M12 22.6C6.477 22.6 2 18.123 2 12.6C2 7.07698 6.477 2.59998 12 2.59998C17.523 2.59998 22 7.07698 22 12.6C22 18.123 17.523 22.6 12 22.6ZM12 20.6C14.1217 20.6 16.1566 19.7571 17.6569 18.2568C19.1571 16.7565 20 14.7217 20 12.6C20 10.4782 19.1571 8.44341 17.6569 6.94312C16.1566 5.44283 14.1217 4.59998 12 4.59998C9.87827 4.59998 7.84344 5.44283 6.34315 6.94312C4.84285 8.44341 4 10.4782 4 12.6C4 14.7217 4.84285 16.7565 6.34315 18.2568C7.84344 19.7571 9.87827 20.6 12 20.6ZM13 12.6H17V14.6H11V7.59998H13V12.6Z" fill="white"/>
</svg>