<svg xmlns="http://www.w3.org/2000/svg" width="24" height="25" viewBox="0 0 24 25" fill="none">
  <path d="M12 22.6C6.477 22.6 2 18.123 2 12.6C2 7.07698 6.477 2.59998 12 2.59998C17.523 2.59998 22 7.07698 22 12.6C22 18.123 17.523 22.6 12 22.6ZM12 20.6C14.1217 20.6 16.1566 19.7571 17.6569 18.2568C19.1571 16.7565 20 14.7217 20 12.6C20 10.4782 19.1571 8.44341 17.6569 6.94312C16.1566 5.44283 14.1217 4.59998 12 4.59998C9.87827 4.59998 7.84344 5.44283 6.34315 6.94312C4.84285 8.44341 4 10.4782 4 12.6C4 14.7217 4.84285 16.7565 6.34315 18.2568C7.84344 19.7571 9.87827 20.6 12 20.6ZM10.05 11.6H15V13.6H10.05C10.1366 14.0253 10.3325 14.4207 10.6184 14.7474C10.9042 15.074 11.2702 15.3206 11.6803 15.4629C12.0903 15.6052 12.5304 15.6383 12.9571 15.5588C13.3839 15.4794 13.7826 15.2903 14.114 15.01L15.814 16.143C15.2298 16.7789 14.475 17.2333 13.6397 17.452C12.8043 17.6707 11.9237 17.6445 11.1029 17.3764C10.282 17.1083 9.55568 16.6097 9.01045 15.9401C8.46523 15.2704 8.12418 14.4581 8.028 13.6H7V11.6H8.027C8.12285 10.7414 8.46382 9.92859 9.00916 9.25858C9.55451 8.58857 10.2812 8.0897 11.1024 7.82154C11.9236 7.55339 12.8047 7.52729 13.6404 7.74637C14.476 7.96544 15.2309 8.42042 15.815 9.05698L14.114 10.19C13.7826 9.9097 13.3839 9.72054 12.9571 9.64112C12.5304 9.5617 12.0903 9.59476 11.6803 9.73703C11.2702 9.87931 10.9042 10.1259 10.6184 10.4526C10.3325 10.7792 10.1366 11.1746 10.05 11.6Z" fill="white"/>
</svg>