<svg xmlns="http://www.w3.org/2000/svg" width="24" height="25" viewBox="0 0 24 25" fill="none">
  <path d="M12 11.6C13.3261 11.6 14.5979 12.1268 15.5355 13.0644C16.4732 14.0021 17 15.2739 17 16.6V22.6H15V16.6C15 15.8348 14.7077 15.0985 14.1827 14.5417C13.6578 13.985 12.9399 13.6499 12.176 13.605L12 13.6C11.2348 13.5999 10.4985 13.8923 9.94174 14.4173C9.38499 14.9422 9.04989 15.6601 9.005 16.424L9 16.6V22.6H7V16.6C7 15.2739 7.52678 14.0021 8.46447 13.0644C9.40215 12.1268 10.6739 11.6 12 11.6ZM5.5 14.6C5.779 14.6 6.05 14.633 6.31 14.694C6.13902 15.203 6.03777 15.7328 6.009 16.269L6 16.6V16.686C5.88505 16.6448 5.76549 16.618 5.644 16.606L5.5 16.6C5.12712 16.6 4.76761 16.7389 4.49158 16.9896C4.21555 17.2403 4.0428 17.5848 4.007 17.956L4 18.1V22.6H2V18.1C2 17.1717 2.36875 16.2815 3.02513 15.6251C3.6815 14.9687 4.57174 14.6 5.5 14.6ZM18.5 14.6C19.4283 14.6 20.3185 14.9687 20.9749 15.6251C21.6313 16.2815 22 17.1717 22 18.1V22.6H20V18.1C20 17.7271 19.8611 17.3676 19.6104 17.0916C19.3597 16.8155 19.0152 16.6428 18.644 16.607L18.5 16.6C18.325 16.6 18.157 16.63 18 16.685V16.6C18 15.934 17.892 15.294 17.691 14.696C17.95 14.633 18.221 14.6 18.5 14.6ZM5.5 8.59998C6.16304 8.59998 6.79893 8.86337 7.26777 9.33221C7.73661 9.80105 8 10.4369 8 11.1C8 11.763 7.73661 12.3989 7.26777 12.8677C6.79893 13.3366 6.16304 13.6 5.5 13.6C4.83696 13.6 4.20107 13.3366 3.73223 12.8677C3.26339 12.3989 3 11.763 3 11.1C3 10.4369 3.26339 9.80105 3.73223 9.33221C4.20107 8.86337 4.83696 8.59998 5.5 8.59998ZM18.5 8.59998C19.163 8.59998 19.7989 8.86337 20.2678 9.33221C20.7366 9.80105 21 10.4369 21 11.1C21 11.763 20.7366 12.3989 20.2678 12.8677C19.7989 13.3366 19.163 13.6 18.5 13.6C17.837 13.6 17.2011 13.3366 16.7322 12.8677C16.2634 12.3989 16 11.763 16 11.1C16 10.4369 16.2634 9.80105 16.7322 9.33221C17.2011 8.86337 17.837 8.59998 18.5 8.59998ZM5.5 10.6C5.36739 10.6 5.24021 10.6527 5.14645 10.7464C5.05268 10.8402 5 10.9674 5 11.1C5 11.2326 5.05268 11.3598 5.14645 11.4535C5.24021 11.5473 5.36739 11.6 5.5 11.6C5.63261 11.6 5.75979 11.5473 5.85355 11.4535C5.94732 11.3598 6 11.2326 6 11.1C6 10.9674 5.94732 10.8402 5.85355 10.7464C5.75979 10.6527 5.63261 10.6 5.5 10.6ZM18.5 10.6C18.3674 10.6 18.2402 10.6527 18.1464 10.7464C18.0527 10.8402 18 10.9674 18 11.1C18 11.2326 18.0527 11.3598 18.1464 11.4535C18.2402 11.5473 18.3674 11.6 18.5 11.6C18.6326 11.6 18.7598 11.5473 18.8536 11.4535C18.9473 11.3598 19 11.2326 19 11.1C19 10.9674 18.9473 10.8402 18.8536 10.7464C18.7598 10.6527 18.6326 10.6 18.5 10.6ZM12 2.59998C13.0609 2.59998 14.0783 3.0214 14.8284 3.77155C15.5786 4.52169 16 5.53911 16 6.59998C16 7.66084 15.5786 8.67826 14.8284 9.4284C14.0783 10.1785 13.0609 10.6 12 10.6C10.9391 10.6 9.92172 10.1785 9.17157 9.4284C8.42143 8.67826 8 7.66084 8 6.59998C8 5.53911 8.42143 4.52169 9.17157 3.77155C9.92172 3.0214 10.9391 2.59998 12 2.59998ZM12 4.59998C11.4696 4.59998 10.9609 4.81069 10.5858 5.18576C10.2107 5.56083 10 6.06954 10 6.59998C10 7.13041 10.2107 7.63912 10.5858 8.01419C10.9609 8.38926 11.4696 8.59998 12 8.59998C12.5304 8.59998 13.0391 8.38926 13.4142 8.01419C13.7893 7.63912 14 7.13041 14 6.59998C14 6.06954 13.7893 5.56083 13.4142 5.18576C13.0391 4.81069 12.5304 4.59998 12 4.59998Z" fill="white"/>
</svg>