<svg xmlns="http://www.w3.org/2000/svg" width="24" height="25" viewBox="0 0 24 25" fill="none">
  <path d="M5.463 5.03299C7.27756 3.46065 9.59899 2.59664 12 2.59999C17.523 2.59999 22 7.07699 22 12.6C22 14.736 21.33 16.716 20.19 18.34L17 12.6H20C20.0001 11.0316 19.5392 9.49779 18.6747 8.18924C17.8101 6.88069 16.5799 5.85514 15.1372 5.24011C13.6944 4.62507 12.1027 4.44769 10.56 4.73C9.0172 5.01232 7.59145 5.74188 6.46 6.82799L5.463 5.03299ZM18.537 20.167C16.7224 21.7393 14.401 22.6033 12 22.6C6.477 22.6 2 18.123 2 12.6C2 10.464 2.67 8.48399 3.81 6.85999L7 12.6H4C3.99987 14.1684 4.46075 15.7022 5.32534 17.0107C6.18992 18.3193 7.42007 19.3448 8.86282 19.9599C10.3056 20.5749 11.8973 20.7523 13.44 20.47C14.9828 20.1877 16.4085 19.4581 17.54 18.372L18.537 20.167Z" fill="white"/>
</svg>