<svg width="425" height="65" viewBox="0 0 425 65" fill="none" xmlns="http://www.w3.org/2000/svg">
<g clip-path="url(#clip0_304_4708)">
<path d="M32.2354 39.4066L25.7974 30.66V12.0122H32.2354V39.4066ZM32.2354 43.0918H27.1738C26.6706 43.0918 26.1526 42.9734 25.6198 42.7366C25.087 42.4998 24.6578 42.1594 24.3323 41.7154L10.7016 22.3129V43.0918H4.2637V12.0122H8.65925C9.16244 12.0122 9.68044 12.1306 10.2132 12.3674C10.746 12.6042 11.1604 12.9446 11.4564 13.3886C13.5876 16.5261 15.6892 19.6785 17.7611 22.8457C19.8627 25.9832 22.0235 29.0764 24.2435 32.1251C25.5754 33.9899 26.9074 35.8251 28.2394 37.6307C29.5714 39.4362 30.9034 41.2566 32.2354 43.0918ZM54.2759 43.5802C52.0263 43.5802 49.8951 43.1806 47.8823 42.3814C45.8992 41.5526 44.1676 40.4278 42.6876 39.007C41.2076 37.5567 40.0236 35.8547 39.1357 33.9011C38.2773 31.9475 37.8481 29.8312 37.8481 27.552C37.8481 25.2728 38.2773 23.1564 39.1357 21.2029C40.0236 19.2493 41.2076 17.5621 42.6876 16.1413C44.1676 14.691 45.8992 13.5662 47.8823 12.767C49.8951 11.9382 52.0263 11.5238 54.2759 11.5238C56.5254 11.5238 58.6418 11.9382 60.625 12.767C62.6378 13.5662 64.3841 14.691 65.8641 16.1413C67.3737 17.5621 68.5577 19.2493 69.4161 21.2029C70.3041 23.1564 70.7481 25.2728 70.7481 27.552C70.7481 29.8312 70.3041 31.9475 69.4161 33.9011C68.5577 35.8547 67.3737 37.5567 65.8641 39.007C64.3841 40.4278 62.6378 41.5526 60.625 42.3814C58.6418 43.1806 56.5254 43.5802 54.2759 43.5802ZM54.2759 37.6751C55.7262 37.6751 57.0434 37.4235 58.2274 36.9203C59.441 36.3875 60.477 35.6623 61.3354 34.7447C62.2234 33.8271 62.9042 32.7615 63.3777 31.5479C63.8809 30.3048 64.1325 28.9728 64.1325 27.552C64.1325 26.1312 63.8809 24.814 63.3777 23.6004C62.9042 22.3573 62.2234 21.2769 61.3354 20.3593C60.477 19.4417 59.441 18.7313 58.2274 18.2281C57.0434 17.6953 55.7262 17.4289 54.2759 17.4289C52.8551 17.4289 51.5379 17.6953 50.3243 18.2281C49.1107 18.7609 48.0747 19.4861 47.2163 20.4037C46.358 21.2917 45.6772 22.3573 45.174 23.6004C44.7004 24.814 44.4636 26.1312 44.4636 27.552C44.4636 28.9728 44.7004 30.3048 45.174 31.5479C45.6772 32.7615 46.358 33.8271 47.2163 34.7447C48.0747 35.6327 49.1107 36.3431 50.3243 36.8759C51.5379 37.4087 52.8551 37.6751 54.2759 37.6751ZM93.0341 43.0918H86.8182C86.1078 43.0918 85.4418 42.8994 84.8202 42.5146C84.2283 42.1002 83.7991 41.5526 83.5327 40.8718L72.0332 12.0122H78.9595L88.7274 36.5651L97.6961 14.2766C97.9625 13.5958 98.3917 13.0482 98.9837 12.6338C99.6053 12.2194 100.271 12.0122 100.982 12.0122H105.555L93.0341 43.0918ZM120.47 18.3169L110.658 43.0918H103.732L116.075 12.0122H122.424C123.134 12.0122 123.785 12.2194 124.377 12.6338C124.999 13.0186 125.443 13.5514 125.709 14.2322L137.031 43.0918H130.105L120.47 18.3169Z" fill="white"/>
<path d="M22.1891 55.9678H0.946248" stroke="white" stroke-width="1.33964" stroke-linecap="round"/>
<path d="M37.7087 61.1151C36.9495 61.1151 36.2083 60.9722 35.4849 60.6864C34.7615 60.3917 34.1184 59.9854 33.5558 59.4674C33.6272 59.3959 33.7165 59.3022 33.8237 59.1861C33.9309 59.07 34.0425 58.9583 34.1586 58.8511C34.2747 58.735 34.3953 58.6368 34.5203 58.5564C34.6454 58.476 34.7615 58.4359 34.8686 58.4359C34.9669 58.4359 35.1053 58.4894 35.2839 58.5966C35.4625 58.6949 35.6769 58.811 35.9269 58.9449C36.177 59.07 36.4628 59.1861 36.7843 59.2932C37.1058 59.3915 37.4586 59.4406 37.8426 59.4406C38.0302 59.4406 38.2311 59.4227 38.4455 59.387C38.6687 59.3513 38.8786 59.2932 39.0751 59.2128C39.2716 59.1235 39.4323 59.003 39.5574 58.8511C39.6913 58.6993 39.7583 58.5073 39.7583 58.2751C39.7583 58.0072 39.6735 57.7973 39.5038 57.6455C39.3341 57.4847 39.1108 57.3641 38.834 57.2838C38.566 57.1945 38.2535 57.1275 37.8962 57.0828C37.5479 57.0292 37.1907 56.9712 36.8245 56.9087C36.4673 56.8462 36.11 56.7658 35.7528 56.6675C35.4045 56.5693 35.0919 56.4264 34.815 56.2388C34.5471 56.0424 34.3283 55.7923 34.1586 55.4887C33.9889 55.185 33.9041 54.801 33.9041 54.3366C33.9041 53.8096 34.0113 53.3676 34.2256 53.0103C34.4489 52.6442 34.7347 52.3494 35.083 52.1262C35.4313 51.894 35.8242 51.7287 36.2619 51.6305C36.7084 51.5233 37.155 51.4697 37.6015 51.4697C38.2802 51.4697 38.959 51.5858 39.6377 51.818C40.3254 52.0502 40.9372 52.3852 41.4731 52.8228C41.3927 52.9031 41.2989 53.0059 41.1917 53.1309C41.0846 53.2559 40.9685 53.3765 40.8434 53.4926C40.7273 53.5998 40.6068 53.698 40.4817 53.7873C40.3567 53.8677 40.2317 53.9079 40.1066 53.9079C40.0262 53.9079 39.9012 53.8677 39.7315 53.7873C39.5618 53.7069 39.3609 53.6221 39.1287 53.5328C38.8965 53.4345 38.6375 53.3452 38.3517 53.2649C38.0748 53.1845 37.7801 53.1443 37.4675 53.1443C37.3068 53.1443 37.1237 53.1621 36.9183 53.1979C36.7218 53.2247 36.5343 53.2782 36.3556 53.3586C36.1859 53.4301 36.0431 53.5328 35.9269 53.6667C35.8108 53.8007 35.7528 53.9749 35.7528 54.1892C35.7528 54.4393 35.8376 54.6357 36.0073 54.7786C36.177 54.9215 36.4003 55.0332 36.6771 55.1136C36.954 55.1939 37.2666 55.2609 37.6149 55.3145C37.9721 55.3592 38.3338 55.4127 38.7 55.4753C39.0751 55.5378 39.4368 55.6226 39.7851 55.7298C40.1423 55.828 40.4594 55.9754 40.7363 56.1719C41.0131 56.3683 41.2364 56.6229 41.4061 56.9355C41.5758 57.2391 41.6606 57.6276 41.6606 58.1009C41.6606 58.6457 41.54 59.1101 41.2989 59.4942C41.0667 59.8782 40.763 60.1908 40.3879 60.4319C40.0128 60.6731 39.5886 60.8472 39.1153 60.9544C38.6509 61.0615 38.182 61.1151 37.7087 61.1151ZM50.6659 61.1151C49.9872 61.1151 49.3441 60.999 48.7368 60.7668C48.1295 60.5257 47.5981 60.1908 47.1427 59.7621C46.6872 59.3334 46.3255 58.8244 46.0575 58.2349C45.7985 57.6455 45.6691 57.0024 45.6691 56.3058C45.6691 55.6092 45.7985 54.9662 46.0575 54.3768C46.3255 53.7784 46.6872 53.2649 47.1427 52.8362C47.5981 52.3986 48.1295 52.0592 48.7368 51.818C49.3441 51.5769 49.9872 51.4563 50.6659 51.4563C51.3982 51.4563 52.1082 51.6082 52.7959 51.9118C53.4836 52.2065 54.0686 52.6352 54.5509 53.1979C54.4705 53.2515 54.3633 53.3274 54.2293 53.4256C54.1043 53.5238 53.9703 53.6221 53.8274 53.7203C53.6935 53.8096 53.5595 53.89 53.4256 53.9615C53.2916 54.0329 53.1755 54.0686 53.0773 54.0686C52.979 54.0686 52.8584 54.0284 52.7155 53.9481C52.5816 53.8588 52.4164 53.7605 52.2199 53.6533C52.0234 53.5462 51.7957 53.4524 51.5367 53.372C51.2866 53.2827 50.9963 53.2381 50.6659 53.2381C50.2372 53.2381 49.8398 53.3184 49.4736 53.4792C49.1075 53.64 48.7904 53.8588 48.5225 54.1356C48.2546 54.4035 48.0447 54.7251 47.8928 55.1002C47.741 55.4753 47.6651 55.8771 47.6651 56.3058C47.6651 56.7345 47.741 57.1364 47.8928 57.5115C48.0536 57.8777 48.2724 58.1947 48.5493 58.4626C48.8261 58.7306 49.1476 58.9449 49.5138 59.1057C49.8889 59.2575 50.2908 59.3334 50.7195 59.3334C51.041 59.3334 51.3268 59.2932 51.5769 59.2128C51.8269 59.1325 52.0457 59.0432 52.2333 58.9449C52.4208 58.8377 52.5816 58.744 52.7155 58.6636C52.8584 58.5832 52.979 58.543 53.0773 58.543C53.1755 58.543 53.2871 58.5788 53.4122 58.6502C53.5461 58.7127 53.6801 58.7931 53.8141 58.8913C53.948 58.9806 54.0775 59.0744 54.2025 59.1727C54.3276 59.2709 54.4303 59.3468 54.5107 59.4004C54.2785 59.6683 54.015 59.9095 53.7203 60.1238C53.4256 60.3381 53.1085 60.5212 52.7691 60.6731C52.4387 60.8159 52.0948 60.9231 51.7376 60.9946C51.3804 61.0749 51.0231 61.1151 50.6659 61.1151ZM66.849 60.9678H64.9066V57.1364H61.2628L61.7852 55.8905C61.8299 55.7834 61.9102 55.6941 62.0263 55.6226C62.1425 55.5422 62.2719 55.502 62.4148 55.502H64.5717C64.7949 55.502 64.9066 55.377 64.9066 55.1269V51.5903H66.1792C66.3578 51.5903 66.5141 51.6573 66.6481 51.7912C66.7821 51.9252 66.849 52.0815 66.849 52.2601V60.9678ZM60.5929 60.9678H58.6505V51.5903H60.5929V60.9678ZM76.171 61.1151C75.4923 61.1151 74.8493 60.9946 74.242 60.7534C73.6436 60.5034 73.1211 60.164 72.6746 59.7353C72.228 59.2977 71.8708 58.7842 71.6029 58.1947C71.3439 57.6053 71.2144 56.9667 71.2144 56.279C71.2144 55.5914 71.3439 54.9528 71.6029 54.3634C71.8708 53.7739 72.228 53.2649 72.6746 52.8362C73.1211 52.3986 73.6436 52.0592 74.242 51.818C74.8493 51.568 75.4923 51.4429 76.171 51.4429C76.8498 51.4429 77.4884 51.568 78.0867 51.818C78.694 52.0592 79.221 52.3986 79.6675 52.8362C80.123 53.2649 80.4802 53.7739 80.7392 54.3634C81.0071 54.9528 81.1411 55.5914 81.1411 56.279C81.1411 56.9667 81.0071 57.6053 80.7392 58.1947C80.4802 58.7842 80.123 59.2977 79.6675 59.7353C79.221 60.164 78.694 60.5034 78.0867 60.7534C77.4884 60.9946 76.8498 61.1151 76.171 61.1151ZM76.171 59.3334C76.6087 59.3334 77.0061 59.2575 77.3633 59.1057C77.7295 58.9449 78.0421 58.7261 78.3011 58.4493C78.569 58.1724 78.7744 57.8509 78.9173 57.4847C79.0691 57.1096 79.145 56.7077 79.145 56.279C79.145 55.8504 79.0691 55.4529 78.9173 55.0868C78.7744 54.7117 78.569 54.3857 78.3011 54.1088C78.0421 53.832 77.7295 53.6176 77.3633 53.4658C77.0061 53.305 76.6087 53.2247 76.171 53.2247C75.7424 53.2247 75.3449 53.305 74.9788 53.4658C74.6126 53.6266 74.3 53.8454 74.041 54.1222C73.782 54.3901 73.5766 54.7117 73.4248 55.0868C73.2819 55.4529 73.2104 55.8504 73.2104 56.279C73.2104 56.7077 73.2819 57.1096 73.4248 57.4847C73.5766 57.8509 73.782 58.1724 74.041 58.4493C74.3 58.7172 74.6126 58.9315 74.9788 59.0923C75.3449 59.253 75.7424 59.3334 76.171 59.3334ZM90.2189 61.1151C89.5402 61.1151 88.8972 60.9946 88.2899 60.7534C87.6915 60.5034 87.169 60.164 86.7225 59.7353C86.2759 59.2977 85.9187 58.7842 85.6508 58.1947C85.3918 57.6053 85.2623 56.9667 85.2623 56.279C85.2623 55.5914 85.3918 54.9528 85.6508 54.3634C85.9187 53.7739 86.2759 53.2649 86.7225 52.8362C87.169 52.3986 87.6915 52.0592 88.2899 51.818C88.8972 51.568 89.5402 51.4429 90.2189 51.4429C90.8977 51.4429 91.5362 51.568 92.1346 51.818C92.7419 52.0592 93.2688 52.3986 93.7154 52.8362C94.1709 53.2649 94.5281 53.7739 94.7871 54.3634C95.055 54.9528 95.189 55.5914 95.189 56.279C95.189 56.9667 95.055 57.6053 94.7871 58.1947C94.5281 58.7842 94.1709 59.2977 93.7154 59.7353C93.2688 60.164 92.7419 60.5034 92.1346 60.7534C91.5362 60.9946 90.8977 61.1151 90.2189 61.1151ZM90.2189 59.3334C90.6565 59.3334 91.054 59.2575 91.4112 59.1057C91.7774 58.9449 92.09 58.7261 92.349 58.4493C92.6169 58.1724 92.8223 57.8509 92.9652 57.4847C93.117 57.1096 93.1929 56.7077 93.1929 56.279C93.1929 55.8504 93.117 55.4529 92.9652 55.0868C92.8223 54.7117 92.6169 54.3857 92.349 54.1088C92.09 53.832 91.7774 53.6176 91.4112 53.4658C91.054 53.305 90.6565 53.2247 90.2189 53.2247C89.7902 53.2247 89.3928 53.305 89.0267 53.4658C88.6605 53.6266 88.3479 53.8454 88.0889 54.1222C87.8299 54.3901 87.6245 54.7117 87.4727 55.0868C87.3298 55.4529 87.2583 55.8504 87.2583 56.279C87.2583 56.7077 87.3298 57.1096 87.4727 57.4847C87.6245 57.8509 87.8299 58.1724 88.0889 58.4493C88.3479 58.7172 88.6605 58.9315 89.0267 59.0923C89.3928 59.253 89.7902 59.3334 90.2189 59.3334ZM105.499 60.9678H99.5513V51.5903H100.824C101.003 51.5903 101.159 51.6573 101.293 51.7912C101.427 51.9252 101.494 52.0815 101.494 52.2601V59.253H106.625L106.116 60.5391C106.071 60.6641 105.99 60.7668 105.874 60.8472C105.758 60.9276 105.633 60.9678 105.499 60.9678Z" fill="white"/>
<path d="M138.546 55.9678H117.303" stroke="white" stroke-width="1.33964" stroke-linecap="round"/>
</g>
<path d="M173.629 21.1539V24.4819H159.754V6.56193H173.296V9.88993H163.875V13.7811H172.195V17.0067H163.875V21.1539H173.629ZM185.018 10.5043C186.725 10.5043 188.099 11.0163 189.14 12.0403C190.198 13.0643 190.727 14.5833 190.727 16.5971V24.4819H186.733V17.2115C186.733 16.1193 186.494 15.3086 186.017 14.7795C185.539 14.2334 184.847 13.9603 183.943 13.9603C182.936 13.9603 182.134 14.2761 181.537 14.9075C180.939 15.5219 180.641 16.4435 180.641 17.6723V24.4819H176.647V10.7091H180.461V12.3219C180.99 11.7417 181.647 11.2979 182.433 10.9907C183.218 10.6665 184.079 10.5043 185.018 10.5043ZM208.705 10.7091V22.1779C208.705 24.7038 208.048 26.5811 206.734 27.8099C205.42 29.0387 203.5 29.6531 200.974 29.6531C199.643 29.6531 198.38 29.491 197.185 29.1667C195.99 28.8425 195 28.3731 194.215 27.7587L195.803 24.8915C196.383 25.3694 197.117 25.7449 198.004 26.0179C198.892 26.3081 199.779 26.4531 200.667 26.4531C202.049 26.4531 203.064 26.1374 203.713 25.5059C204.379 24.8915 204.711 23.9529 204.711 22.6899V22.1011C203.67 23.2446 202.22 23.8163 200.359 23.8163C199.096 23.8163 197.936 23.5433 196.878 22.9971C195.837 22.4339 195.009 21.6489 194.395 20.6419C193.78 19.635 193.473 18.4745 193.473 17.1603C193.473 15.8462 193.78 14.6857 194.395 13.6787C195.009 12.6718 195.837 11.8953 196.878 11.3491C197.936 10.7859 199.096 10.5043 200.359 10.5043C202.356 10.5043 203.875 11.1614 204.916 12.4755V10.7091H208.705ZM201.153 20.5395C202.211 20.5395 203.073 20.2323 203.739 19.6179C204.421 18.9865 204.763 18.1673 204.763 17.1603C204.763 16.1534 204.421 15.3427 203.739 14.7283C203.073 14.0969 202.211 13.7811 201.153 13.7811C200.095 13.7811 199.224 14.0969 198.542 14.7283C197.859 15.3427 197.518 16.1534 197.518 17.1603C197.518 18.1673 197.859 18.9865 198.542 19.6179C199.224 20.2323 200.095 20.5395 201.153 20.5395ZM212.422 5.48673H216.416V24.4819H212.422V5.48673ZM220.122 10.7091H224.116V24.4819H220.122V10.7091ZM222.119 8.78913C221.385 8.78913 220.788 8.5758 220.327 8.14913C219.866 7.72247 219.636 7.1934 219.636 6.56193C219.636 5.93047 219.866 5.4014 220.327 4.97473C220.788 4.54807 221.385 4.33473 222.119 4.33473C222.853 4.33473 223.45 4.53953 223.911 4.94913C224.372 5.35873 224.602 5.87073 224.602 6.48513C224.602 7.15073 224.372 7.7054 223.911 8.14913C223.45 8.5758 222.853 8.78913 222.119 8.78913ZM232.456 24.6867C231.312 24.6867 230.194 24.5502 229.102 24.2771C228.01 23.987 227.139 23.6286 226.491 23.2019L227.822 20.3347C228.436 20.7273 229.179 21.0515 230.049 21.3075C230.92 21.5465 231.773 21.6659 232.609 21.6659C234.299 21.6659 235.144 21.2478 235.144 20.4115C235.144 20.019 234.913 19.7374 234.452 19.5667C233.992 19.3961 233.283 19.251 232.328 19.1315C231.201 18.9609 230.271 18.7646 229.537 18.5427C228.803 18.3209 228.163 17.9283 227.617 17.3651C227.088 16.8019 226.824 15.9998 226.824 14.9587C226.824 14.0883 227.071 13.3203 227.566 12.6547C228.078 11.9721 228.812 11.443 229.768 11.0675C230.74 10.6921 231.884 10.5043 233.198 10.5043C234.171 10.5043 235.135 10.6153 236.091 10.8371C237.064 11.0419 237.866 11.3321 238.497 11.7075L237.166 14.5491C235.954 13.8665 234.632 13.5251 233.198 13.5251C232.345 13.5251 231.705 13.6446 231.278 13.8835C230.851 14.1225 230.638 14.4297 230.638 14.8051C230.638 15.2318 230.868 15.5305 231.329 15.7011C231.79 15.8718 232.524 16.0339 233.531 16.1875C234.657 16.3753 235.579 16.5801 236.296 16.8019C237.012 17.0067 237.635 17.3907 238.164 17.9539C238.693 18.5171 238.958 19.3022 238.958 20.3091C238.958 21.1625 238.702 21.9219 238.19 22.5875C237.678 23.2531 236.927 23.7737 235.937 24.1491C234.964 24.5075 233.804 24.6867 232.456 24.6867ZM249.793 10.5043C251.5 10.5043 252.874 11.0163 253.915 12.0403C254.973 13.0643 255.502 14.5833 255.502 16.5971V24.4819H251.508V17.2115C251.508 16.1193 251.269 15.3086 250.792 14.7795C250.314 14.2334 249.622 13.9603 248.718 13.9603C247.711 13.9603 246.909 14.2761 246.312 14.9075C245.714 15.5219 245.416 16.4435 245.416 17.6723V24.4819H241.422V5.48673H245.416V12.1427C245.945 11.6137 246.585 11.2126 247.336 10.9395C248.086 10.6494 248.906 10.5043 249.793 10.5043ZM270.75 11.0163H274.282V14.0883H270.852V24.4819H266.858V14.0883H264.734V11.0163H266.858V10.4019C266.858 8.8318 267.319 7.58593 268.241 6.66433C269.179 5.74273 270.494 5.28193 272.183 5.28193C272.78 5.28193 273.344 5.3502 273.873 5.48673C274.419 5.6062 274.871 5.7854 275.23 6.02433L274.18 8.91713C273.719 8.59287 273.182 8.43073 272.567 8.43073C271.355 8.43073 270.75 9.09633 270.75 10.4275V11.0163ZM282.651 24.6867C281.2 24.6867 279.894 24.3881 278.734 23.7907C277.59 23.1763 276.694 22.3315 276.046 21.2563C275.397 20.1811 275.073 18.9609 275.073 17.5955C275.073 16.2302 275.397 15.0099 276.046 13.9347C276.694 12.8595 277.59 12.0233 278.734 11.4259C279.894 10.8115 281.2 10.5043 282.651 10.5043C284.101 10.5043 285.398 10.8115 286.542 11.4259C287.685 12.0233 288.581 12.8595 289.23 13.9347C289.878 15.0099 290.203 16.2302 290.203 17.5955C290.203 18.9609 289.878 20.1811 289.23 21.2563C288.581 22.3315 287.685 23.1763 286.542 23.7907C285.398 24.3881 284.101 24.6867 282.651 24.6867ZM282.651 21.4099C283.675 21.4099 284.511 21.0686 285.159 20.3859C285.825 19.6862 286.158 18.7561 286.158 17.5955C286.158 16.435 285.825 15.5134 285.159 14.8307C284.511 14.131 283.675 13.7811 282.651 13.7811C281.627 13.7811 280.782 14.131 280.116 14.8307C279.451 15.5134 279.118 16.435 279.118 17.5955C279.118 18.7561 279.451 19.6862 280.116 20.3859C280.782 21.0686 281.627 21.4099 282.651 21.4099ZM296.686 12.5267C297.164 11.8611 297.804 11.3577 298.606 11.0163C299.426 10.675 300.364 10.5043 301.422 10.5043V14.1907C300.979 14.1566 300.68 14.1395 300.526 14.1395C299.383 14.1395 298.487 14.4638 297.838 15.1123C297.19 15.7438 296.866 16.6995 296.866 17.9795V24.4819H292.872V10.7091H296.686V12.5267ZM320.005 24.7891C318.178 24.7891 316.523 24.3966 315.038 23.6115C313.57 22.8094 312.41 21.7086 311.557 20.3091C310.72 18.8926 310.302 17.2969 310.302 15.5219C310.302 13.747 310.72 12.1598 311.557 10.7603C312.41 9.3438 313.57 8.243 315.038 7.45793C316.523 6.6558 318.187 6.25473 320.03 6.25473C321.583 6.25473 322.983 6.5278 324.229 7.07393C325.491 7.62007 326.55 8.40513 327.403 9.42913L324.741 11.8867C323.529 10.4873 322.027 9.78753 320.235 9.78753C319.126 9.78753 318.136 10.035 317.265 10.5299C316.395 11.0078 315.712 11.6819 315.217 12.5523C314.739 13.4227 314.501 14.4126 314.501 15.5219C314.501 16.6313 314.739 17.6211 315.217 18.4915C315.712 19.3619 316.395 20.0446 317.265 20.5395C318.136 21.0174 319.126 21.2563 320.235 21.2563C322.027 21.2563 323.529 20.5481 324.741 19.1315L327.403 21.5891C326.55 22.6302 325.491 23.4238 324.229 23.9699C322.966 24.5161 321.558 24.7891 320.005 24.7891ZM335.377 10.5043C337.51 10.5043 339.149 11.0163 340.292 12.0403C341.436 13.0473 342.008 14.5747 342.008 16.6227V24.4819H338.27V22.7667C337.519 24.0467 336.12 24.6867 334.072 24.6867C333.013 24.6867 332.092 24.5075 331.307 24.1491C330.539 23.7907 329.95 23.2958 329.54 22.6643C329.131 22.0329 328.926 21.3161 328.926 20.5139C328.926 19.2339 329.404 18.227 330.36 17.4931C331.332 16.7593 332.826 16.3923 334.84 16.3923H338.014C338.014 15.5219 337.749 14.8563 337.22 14.3955C336.691 13.9177 335.898 13.6787 334.84 13.6787C334.106 13.6787 333.38 13.7982 332.664 14.0371C331.964 14.259 331.366 14.5662 330.872 14.9587L329.438 12.1683C330.189 11.6393 331.085 11.2297 332.126 10.9395C333.184 10.6494 334.268 10.5043 335.377 10.5043ZM335.07 21.9987C335.753 21.9987 336.358 21.8451 336.888 21.5379C337.417 21.2137 337.792 20.7443 338.014 20.1299V18.7219H335.275C333.636 18.7219 332.817 19.2595 332.817 20.3347C332.817 20.8467 333.013 21.2563 333.406 21.5635C333.816 21.8537 334.37 21.9987 335.07 21.9987ZM349.436 12.5267C349.914 11.8611 350.554 11.3577 351.356 11.0163C352.176 10.675 353.114 10.5043 354.172 10.5043V14.1907C353.729 14.1566 353.43 14.1395 353.276 14.1395C352.133 14.1395 351.237 14.4638 350.588 15.1123C349.94 15.7438 349.616 16.6995 349.616 17.9795V24.4819H345.622V10.7091H349.436V12.5267ZM369.913 17.6467C369.913 17.6979 369.888 18.0563 369.836 18.7219H359.417C359.605 19.5753 360.049 20.2494 360.748 20.7443C361.448 21.2393 362.318 21.4867 363.36 21.4867C364.076 21.4867 364.708 21.3843 365.254 21.1795C365.817 20.9577 366.338 20.6163 366.816 20.1555L368.94 22.4595C367.643 23.9443 365.749 24.6867 363.257 24.6867C361.704 24.6867 360.33 24.3881 359.136 23.7907C357.941 23.1763 357.019 22.3315 356.371 21.2563C355.722 20.1811 355.398 18.9609 355.398 17.5955C355.398 16.2473 355.714 15.0355 356.345 13.9603C356.994 12.8681 357.873 12.0233 358.982 11.4259C360.108 10.8115 361.363 10.5043 362.745 10.5043C364.093 10.5043 365.314 10.7945 366.406 11.3747C367.498 11.955 368.352 12.7913 368.966 13.8835C369.597 14.9587 369.913 16.2131 369.913 17.6467ZM362.771 13.5251C361.866 13.5251 361.107 13.7811 360.492 14.2931C359.878 14.8051 359.502 15.5049 359.366 16.3923H366.15C366.013 15.5219 365.638 14.8307 365.024 14.3187C364.409 13.7897 363.658 13.5251 362.771 13.5251ZM386.063 17.6467C386.063 17.6979 386.038 18.0563 385.986 18.7219H375.567C375.755 19.5753 376.199 20.2494 376.898 20.7443C377.598 21.2393 378.468 21.4867 379.51 21.4867C380.226 21.4867 380.858 21.3843 381.404 21.1795C381.967 20.9577 382.488 20.6163 382.966 20.1555L385.09 22.4595C383.793 23.9443 381.899 24.6867 379.407 24.6867C377.854 24.6867 376.48 24.3881 375.286 23.7907C374.091 23.1763 373.169 22.3315 372.521 21.2563C371.872 20.1811 371.548 18.9609 371.548 17.5955C371.548 16.2473 371.864 15.0355 372.495 13.9603C373.144 12.8681 374.023 12.0233 375.132 11.4259C376.258 10.8115 377.513 10.5043 378.895 10.5043C380.243 10.5043 381.464 10.7945 382.556 11.3747C383.648 11.955 384.502 12.7913 385.116 13.8835C385.747 14.9587 386.063 16.2131 386.063 17.6467ZM378.921 13.5251C378.016 13.5251 377.257 13.7811 376.642 14.2931C376.028 14.8051 375.652 15.5049 375.516 16.3923H382.3C382.163 15.5219 381.788 14.8307 381.174 14.3187C380.559 13.7897 379.808 13.5251 378.921 13.5251ZM392.536 12.5267C393.014 11.8611 393.654 11.3577 394.456 11.0163C395.276 10.675 396.214 10.5043 397.272 10.5043V14.1907C396.829 14.1566 396.53 14.1395 396.376 14.1395C395.233 14.1395 394.337 14.4638 393.688 15.1123C393.04 15.7438 392.716 16.6995 392.716 17.9795V24.4819H388.722V10.7091H392.536V12.5267ZM421.051 24.7891L418.901 22.7923C417.194 24.1235 415.197 24.7891 412.911 24.7891C411.613 24.7891 410.444 24.5843 409.403 24.1747C408.362 23.7481 407.543 23.1593 406.946 22.4083C406.365 21.6574 406.075 20.8126 406.075 19.8739C406.075 18.7646 406.383 17.7918 406.997 16.9555C407.628 16.1022 408.635 15.2915 410.018 14.5235C409.369 13.8579 408.9 13.2265 408.61 12.6291C408.32 12.0147 408.175 11.3833 408.175 10.7347C408.175 9.86433 408.405 9.09633 408.866 8.43073C409.327 7.76513 409.975 7.25313 410.811 6.89473C411.665 6.51927 412.646 6.33153 413.755 6.33153C415.308 6.33153 416.554 6.707 417.493 7.45793C418.432 8.1918 418.901 9.1902 418.901 10.4531C418.901 11.3747 418.619 12.1939 418.056 12.9107C417.51 13.6275 416.623 14.3187 415.394 14.9843L418.671 18.0307C419.063 17.2115 419.362 16.2814 419.567 15.2403L422.767 16.2387C422.425 17.8259 421.879 19.1827 421.128 20.3091L423.227 22.2547L421.051 24.7891ZM413.755 9.04513C413.158 9.04513 412.68 9.19873 412.322 9.50593C411.98 9.81313 411.81 10.2057 411.81 10.6835C411.81 11.0419 411.904 11.3833 412.091 11.7075C412.279 12.0147 412.646 12.4329 413.192 12.9619C414.063 12.5011 414.668 12.0915 415.01 11.7331C415.351 11.3577 415.522 10.9566 415.522 10.5299C415.522 10.0862 415.368 9.7278 415.061 9.45473C414.754 9.18167 414.319 9.04513 413.755 9.04513ZM413.192 21.6659C414.438 21.6659 415.556 21.3161 416.546 20.6163L412.219 16.5715C411.417 17.0323 410.845 17.4846 410.504 17.9283C410.163 18.3721 409.992 18.8755 409.992 19.4387C409.992 20.1043 410.282 20.6419 410.863 21.0515C411.443 21.4611 412.219 21.6659 413.192 21.6659Z" fill="#E8E8E8"/>
<path d="M185.174 39.162L179.132 57.082H177.135L171.887 41.7988L166.614 57.082H164.643L158.601 39.162H160.547L165.718 54.5732L171.068 39.162H172.835L178.108 54.65L183.356 39.162H185.174ZM192.742 57.21C191.445 57.21 190.276 56.9199 189.235 56.3396C188.194 55.7423 187.375 54.9231 186.777 53.882C186.18 52.841 185.881 51.6634 185.881 50.3492C185.881 49.0351 186.18 47.8575 186.777 46.8164C187.375 45.7754 188.194 44.9647 189.235 44.3844C190.276 43.8042 191.445 43.514 192.742 43.514C194.039 43.514 195.208 43.8042 196.249 44.3844C197.29 44.9647 198.101 45.7754 198.681 46.8164C199.279 47.8575 199.577 49.0351 199.577 50.3492C199.577 51.6634 199.279 52.841 198.681 53.882C198.101 54.9231 197.29 55.7423 196.249 56.3396C195.208 56.9199 194.039 57.21 192.742 57.21ZM192.742 55.5972C193.698 55.5972 194.551 55.3839 195.302 54.9572C196.07 54.5135 196.667 53.8906 197.094 53.0884C197.521 52.2863 197.734 51.3732 197.734 50.3492C197.734 49.3252 197.521 48.4122 197.094 47.61C196.667 46.8079 196.07 46.1935 195.302 45.7668C194.551 45.3231 193.698 45.1012 192.742 45.1012C191.786 45.1012 190.925 45.3231 190.157 45.7668C189.406 46.1935 188.808 46.8079 188.365 47.61C187.938 48.4122 187.725 49.3252 187.725 50.3492C187.725 51.3732 187.938 52.2863 188.365 53.0884C188.808 53.8906 189.406 54.5135 190.157 54.9572C190.925 55.3839 191.786 55.5972 192.742 55.5972ZM205.029 46.2532C205.456 45.3487 206.087 44.666 206.923 44.2052C207.777 43.7444 208.826 43.514 210.072 43.514V45.2804L209.637 45.2548C208.22 45.2548 207.111 45.69 206.309 46.5604C205.507 47.4308 205.106 48.6511 205.106 50.2212V57.082H203.288V43.6164H205.029V46.2532ZM218.355 50.3236L215.181 53.242V57.082H213.363V38.0868H215.181V50.9636L223.219 43.6164H225.472L219.712 49.1204L226.01 57.082H223.782L218.355 50.3236ZM235.822 39.162H237.717V55.4436H247.752V57.082H235.822V39.162ZM250.513 43.6164H252.331V57.082H250.513V43.6164ZM251.435 40.6724C251.059 40.6724 250.744 40.5444 250.488 40.2884C250.232 40.0324 250.104 39.7252 250.104 39.3668C250.104 39.0255 250.232 38.7268 250.488 38.4708C250.744 38.2148 251.059 38.0868 251.435 38.0868C251.81 38.0868 252.126 38.2148 252.382 38.4708C252.638 38.7098 252.766 38.9999 252.766 39.3412C252.766 39.7167 252.638 40.0324 252.382 40.2884C252.126 40.5444 251.81 40.6724 251.435 40.6724ZM261.843 39.4948C261.057 39.4948 260.46 39.7082 260.051 40.1348C259.658 40.5615 259.462 41.193 259.462 42.0292V43.6164H263.609V45.1524H259.513V57.082H257.695V45.1524H255.289V43.6164H257.695V41.9524C257.695 40.7236 258.045 39.7508 258.745 39.034C259.462 38.3172 260.469 37.9588 261.766 37.9588C262.278 37.9588 262.773 38.0356 263.251 38.1892C263.728 38.3258 264.129 38.5306 264.454 38.8036L263.839 40.1604C263.31 39.7167 262.645 39.4948 261.843 39.4948ZM277.563 50.9124H266.299C266.401 52.3119 266.939 53.4468 267.912 54.3172C268.885 55.1706 270.113 55.5972 271.598 55.5972C272.434 55.5972 273.202 55.4522 273.902 55.162C274.602 54.8548 275.208 54.4111 275.72 53.8308L276.744 55.0084C276.146 55.7252 275.395 56.2714 274.491 56.6468C273.603 57.0223 272.622 57.21 271.547 57.21C270.165 57.21 268.936 56.9199 267.861 56.3396C266.802 55.7423 265.975 54.9231 265.377 53.882C264.78 52.841 264.481 51.6634 264.481 50.3492C264.481 49.0351 264.763 47.8575 265.326 46.8164C265.906 45.7754 266.691 44.9647 267.681 44.3844C268.688 43.8042 269.815 43.514 271.061 43.514C272.306 43.514 273.424 43.8042 274.414 44.3844C275.404 44.9647 276.181 45.7754 276.744 46.8164C277.307 47.8404 277.589 49.018 277.589 50.3492L277.563 50.9124ZM271.061 45.0756C269.763 45.0756 268.671 45.4938 267.784 46.33C266.913 47.1492 266.418 48.2244 266.299 49.5556H275.848C275.728 48.2244 275.225 47.1492 274.337 46.33C273.467 45.4938 272.375 45.0756 271.061 45.0756Z" fill="#E8E8E8"/>
<defs>
<clipPath id="clip0_304_4708">
<rect width="137.476" height="64" fill="white" transform="translate(0.527344 0.281982)"/>
</clipPath>
</defs>
</svg>
