<svg xmlns="http://www.w3.org/2000/svg" width="86" height="40" viewBox="0 0 86 40" fill="none">
  <path d="M8.89155 7.83252C9.79284 7.83252 10.6083 8.0185 11.3379 8.39046C12.0675 8.74814 12.6397 9.30608 13.0546 10.0643C13.4838 10.8225 13.6984 11.8025 13.6984 13.0042V19.6566H9.62116V13.6694C9.62116 12.8396 9.44949 12.2388 9.10614 11.8669C8.77704 11.4806 8.31211 11.2875 7.71126 11.2875C7.28207 11.2875 6.88865 11.3876 6.531 11.5879C6.17334 11.7739 5.89437 12.0671 5.69409 12.4677C5.4938 12.8683 5.39366 13.3905 5.39366 14.0342V19.6566H1.31641V8.02565H5.20053V11.3304L4.44945 10.3647C4.89294 9.52067 5.50096 8.89115 6.27349 8.4763C7.04602 8.04711 7.91869 7.83252 8.89155 7.83252ZM22.2418 19.8497C20.9685 19.8497 19.8384 19.5922 18.8513 19.0772C17.8642 18.5621 17.0844 17.854 16.5122 16.9527C15.9543 16.0371 15.6753 14.9928 15.6753 13.8196C15.6753 12.6465 15.9543 11.6093 16.5122 10.7081C17.0844 9.80677 17.8642 9.10574 18.8513 8.60505C19.8384 8.09003 20.9685 7.83252 22.2418 7.83252C23.5151 7.83252 24.6453 8.09003 25.6324 8.60505C26.6338 9.10574 27.4135 9.80677 27.9715 10.7081C28.5294 11.6093 28.8084 12.6465 28.8084 13.8196C28.8084 14.9928 28.5294 16.0371 27.9715 16.9527C27.4135 17.854 26.6338 18.5621 25.6324 19.0772C24.6453 19.5922 23.5151 19.8497 22.2418 19.8497ZM22.2418 16.6093C22.714 16.6093 23.1288 16.502 23.4865 16.2875C23.8584 16.0729 24.1517 15.7581 24.3663 15.3432C24.5809 14.9141 24.6882 14.4062 24.6882 13.8196C24.6882 13.2331 24.5809 12.7396 24.3663 12.339C24.1517 11.9241 23.8584 11.6093 23.4865 11.3948C23.1288 11.1802 22.714 11.0729 22.2418 11.0729C21.784 11.0729 21.3691 11.1802 20.9972 11.3948C20.6395 11.6093 20.3462 11.9241 20.1174 12.339C19.9028 12.7396 19.7955 13.2331 19.7955 13.8196C19.7955 14.4062 19.9028 14.9141 20.1174 15.3432C20.3462 15.7581 20.6395 16.0729 20.9972 16.2875C21.3691 16.502 21.784 16.6093 22.2418 16.6093ZM33.6231 19.6566L28.8377 8.02565H33.0223L36.842 17.7467H34.739L38.7519 8.02565H42.636L37.8291 19.6566H33.6231ZM50.3948 19.6566V17.4892L50.1158 16.9527V12.9613C50.1158 12.3175 49.9156 11.8239 49.515 11.4806C49.1287 11.1229 48.5064 10.9441 47.648 10.9441C47.0901 10.9441 46.525 11.0371 45.9527 11.2231C45.3806 11.3948 44.8941 11.6379 44.4935 11.9527L43.1201 9.18445C43.7782 8.75527 44.5651 8.42623 45.4806 8.19733C46.4106 7.95412 47.3333 7.83252 48.2489 7.83252C50.1373 7.83252 51.5965 8.26885 52.6266 9.14153C53.6709 9.9999 54.1931 11.3518 54.1931 13.1973V19.6566H50.3948ZM46.9613 19.8497C46.0315 19.8497 45.2446 19.6923 44.6008 19.3776C43.957 19.0628 43.4635 18.6336 43.1201 18.09C42.7911 17.5464 42.6266 16.9384 42.6266 16.266C42.6266 15.5507 42.8055 14.9355 43.1631 14.4205C43.5351 13.8911 44.1001 13.4906 44.8583 13.2188C45.6166 12.9327 46.5965 12.7896 47.7982 12.7896H50.545V14.9141H48.3562C47.6982 14.9141 47.2332 15.0214 46.9613 15.236C46.7038 15.4505 46.5751 15.7366 46.5751 16.0943C46.5751 16.452 46.711 16.7381 46.9828 16.9527C47.2546 17.1673 47.6266 17.2746 48.0987 17.2746C48.5422 17.2746 48.9428 17.1673 49.3004 16.9527C49.6724 16.7238 49.9442 16.3804 50.1158 15.9226L50.6738 17.4248C50.4592 18.2259 50.0372 18.834 49.4077 19.2488C48.7926 19.6494 47.9771 19.8497 46.9613 19.8497ZM58.4835 19.8497C57.7968 19.8497 57.2174 19.6208 56.7453 19.163C56.2732 18.7052 56.0371 18.1258 56.0371 17.4248C56.0371 16.6952 56.2732 16.1158 56.7453 15.6866C57.2174 15.2431 57.7968 15.0214 58.4835 15.0214C59.1702 15.0214 59.7496 15.2431 60.2217 15.6866C60.6938 16.1158 60.9298 16.6952 60.9298 17.4248C60.9298 18.1258 60.6938 18.7052 60.2217 19.163C59.7496 19.6208 59.1702 19.8497 58.4835 19.8497Z" fill="white"/>
  <path d="M20.4183 35.9228C19.4741 35.9228 18.5728 35.794 17.7145 35.5365C16.8703 35.279 16.2051 34.9642 15.7188 34.5923L16.5771 32.9614C17.0635 33.2904 17.6643 33.5694 18.3797 33.7983C19.095 34.0272 19.8246 34.1417 20.5685 34.1417C21.527 34.1417 22.2137 34.0058 22.6286 33.7339C23.0578 33.4621 23.2724 33.083 23.2724 32.5966C23.2724 32.2389 23.1436 31.9599 22.8861 31.7597C22.6286 31.5594 22.2853 31.4092 21.8561 31.309C21.4412 31.2089 20.9763 31.123 20.4612 31.0515C19.9462 30.9657 19.4312 30.8655 18.9162 30.7511C18.4012 30.6223 17.9291 30.4507 17.4999 30.2361C17.0707 30.0072 16.7273 29.6996 16.4698 29.3133C16.2123 28.9127 16.0836 28.3835 16.0836 27.7254C16.0836 27.0387 16.2767 26.4378 16.663 25.9228C17.0492 25.4078 17.5928 25.0144 18.2939 24.7425C19.0091 24.4564 19.8532 24.3133 20.826 24.3133C21.5699 24.3133 22.321 24.4063 23.0793 24.5923C23.8518 24.764 24.4812 25.0144 24.9677 25.3434L24.0878 26.9743C23.5728 26.6309 23.0363 26.3949 22.4784 26.2661C21.9205 26.1374 21.3625 26.073 20.8046 26.073C19.9033 26.073 19.2309 26.2232 18.7874 26.5236C18.3439 26.8097 18.1222 27.1817 18.1222 27.6395C18.1222 28.0258 18.2509 28.3262 18.5084 28.5408C18.7802 28.7411 19.1236 28.8985 19.5385 29.0129C19.9677 29.1273 20.4398 29.2275 20.9548 29.3133C21.4698 29.3848 21.9848 29.485 22.4999 29.6138C23.0149 29.7282 23.4798 29.8927 23.8947 30.1073C24.3239 30.3219 24.6672 30.6223 24.9248 31.0086C25.1965 31.3949 25.3325 31.9099 25.3325 32.5537C25.3325 33.2404 25.1321 33.8341 24.7316 34.3348C24.331 34.8355 23.766 35.229 23.0363 35.5151C22.3067 35.7869 21.434 35.9228 20.4183 35.9228ZM32.8642 35.9228C31.7054 35.9228 30.6682 35.6724 29.7526 35.1717C28.8513 34.671 28.1431 33.9843 27.6281 33.1116C27.1131 32.2389 26.8556 31.2375 26.8556 30.1073C26.8556 28.9771 27.1131 27.9757 27.6281 27.103C28.1431 26.2303 28.8513 25.5508 29.7526 25.0644C30.6682 24.5637 31.7054 24.3133 32.8642 24.3133C33.8942 24.3133 34.8098 24.5208 35.6109 24.9357C36.4264 25.3363 37.0558 25.9371 37.4993 26.7382L35.9328 27.7468C35.5609 27.1889 35.103 26.7811 34.5594 26.5236C34.0301 26.2518 33.4579 26.1159 32.8427 26.1159C32.0987 26.1159 31.4335 26.2805 30.847 26.6095C30.2605 26.9385 29.7955 27.4035 29.4521 28.0043C29.1088 28.5908 28.9371 29.2919 28.9371 30.1073C28.9371 30.9228 29.1088 31.6309 29.4521 32.2318C29.7955 32.8327 30.2605 33.2976 30.847 33.6266C31.4335 33.9557 32.0987 34.1202 32.8427 34.1202C33.4579 34.1202 34.0301 33.9914 34.5594 33.7339C35.103 33.4621 35.5609 33.0472 35.9328 32.4893L37.4993 33.4764C37.0558 34.2633 36.4264 34.8713 35.6109 35.3005C34.8098 35.7153 33.8942 35.9228 32.8642 35.9228ZM46.0927 24.3133C47.0227 24.3133 47.8381 24.4921 48.5391 24.8498C49.2545 25.2075 49.8124 25.7511 50.2129 26.4807C50.6135 27.2103 50.8138 28.1331 50.8138 29.249V35.794H48.7537V29.485C48.7537 28.3835 48.4819 27.5537 47.9382 26.9957C47.409 26.4378 46.6579 26.1588 45.685 26.1588C44.9554 26.1588 44.3188 26.3019 43.7751 26.588C43.2315 26.8741 42.8095 27.2962 42.509 27.8541C42.223 28.412 42.0799 29.1059 42.0799 29.9357V35.794H40.0198V19.8713H42.0799V27.4893L41.6721 26.6739C42.0442 25.9299 42.6163 25.3505 43.3889 24.9357C44.1614 24.5208 45.0627 24.3133 46.0927 24.3133ZM59.4975 35.9228C58.3531 35.9228 57.3374 35.6724 56.4503 35.1717C55.5634 34.671 54.8624 33.9843 54.3473 33.1116C53.8323 32.2247 53.5748 31.2232 53.5748 30.1073C53.5748 28.9771 53.8323 27.9757 54.3473 27.103C54.8624 26.2303 55.5634 25.5508 56.4503 25.0644C57.3374 24.5637 58.3531 24.3133 59.4975 24.3133C60.6278 24.3133 61.6363 24.5637 62.5233 25.0644C63.4246 25.5508 64.1256 26.2303 64.6263 27.103C65.1413 27.9614 65.3988 28.9629 65.3988 30.1073C65.3988 31.2375 65.1413 32.2389 64.6263 33.1116C64.1256 33.9843 63.4246 34.671 62.5233 35.1717C61.6363 35.6724 60.6278 35.9228 59.4975 35.9228ZM59.4975 34.1202C60.2272 34.1202 60.8781 33.9557 61.4503 33.6266C62.0369 33.2976 62.4947 32.8327 62.8237 32.2318C63.1528 31.6166 63.3173 30.9084 63.3173 30.1073C63.3173 29.2919 63.1528 28.5908 62.8237 28.0043C62.4947 27.4035 62.0369 26.9385 61.4503 26.6095C60.8781 26.2805 60.2272 26.1159 59.4975 26.1159C58.7679 26.1159 58.117 26.2805 57.5448 26.6095C56.9726 26.9385 56.5147 27.4035 56.1714 28.0043C55.828 28.5908 55.6563 29.2919 55.6563 30.1073C55.6563 30.9084 55.828 31.6166 56.1714 32.2318C56.5147 32.8327 56.9726 33.2976 57.5448 33.6266C58.117 33.9557 58.7679 34.1202 59.4975 34.1202ZM73.1192 35.9228C71.9746 35.9228 70.9589 35.6724 70.072 35.1717C69.1849 34.671 68.484 33.9843 67.969 33.1116C67.4539 32.2247 67.1964 31.2232 67.1964 30.1073C67.1964 28.9771 67.4539 27.9757 67.969 27.103C68.484 26.2303 69.1849 25.5508 70.072 25.0644C70.9589 24.5637 71.9746 24.3133 73.1192 24.3133C74.2493 24.3133 75.2579 24.5637 76.1449 25.0644C77.0462 25.5508 77.7472 26.2303 78.2479 27.103C78.7629 27.9614 79.0205 28.9629 79.0205 30.1073C79.0205 31.2375 78.7629 32.2389 78.2479 33.1116C77.7472 33.9843 77.0462 34.671 76.1449 35.1717C75.2579 35.6724 74.2493 35.9228 73.1192 35.9228ZM73.1192 34.1202C73.8488 34.1202 74.4997 33.9557 75.072 33.6266C75.6585 33.2976 76.1163 32.8327 76.4454 32.2318C76.7744 31.6166 76.9389 30.9084 76.9389 30.1073C76.9389 29.2919 76.7744 28.5908 76.4454 28.0043C76.1163 27.4035 75.6585 26.9385 75.072 26.6095C74.4997 26.2805 73.8488 26.1159 73.1192 26.1159C72.3896 26.1159 71.7386 26.2805 71.1664 26.6095C70.5941 26.9385 70.1363 27.4035 69.793 28.0043C69.4496 28.5908 69.278 29.2919 69.278 30.1073C69.278 30.9084 69.4496 31.6166 69.793 32.2318C70.1363 32.8327 70.5941 33.2976 71.1664 33.6266C71.7386 33.9557 72.3896 34.1202 73.1192 34.1202ZM81.8695 35.794V19.8713H83.9296V35.794H81.8695Z" fill="white"/>
</svg>