<svg width="266" height="41" viewBox="0 0 266 41" fill="none" xmlns="http://www.w3.org/2000/svg">
<g clip-path="url(#clip0_304_4351)">
<path d="M20.4221 24.5474L16.3984 19.0807V7.42583H20.4221V24.5474ZM20.4221 26.8506H17.2587C16.9442 26.8506 16.6204 26.7766 16.2874 26.6286C15.9544 26.4806 15.6862 26.2678 15.4827 25.9903L6.96354 13.8637V26.8506H2.93984V7.42583H5.68706C6.00155 7.42583 6.3253 7.49983 6.65829 7.64783C6.99129 7.79583 7.25029 8.00857 7.43528 8.28607C8.76727 10.247 10.0808 12.2173 11.3757 14.1967C12.6892 16.1577 14.0397 18.0909 15.4272 19.9964C16.2597 21.1619 17.0922 22.3089 17.9247 23.4374C18.7571 24.5659 19.5896 25.7036 20.4221 26.8506ZM34.1974 27.1558C32.7915 27.1558 31.4595 26.9061 30.2015 26.4066C28.962 25.8886 27.8798 25.1856 26.9548 24.2976C26.0298 23.3911 25.2898 22.3274 24.7348 21.1064C24.1983 19.8854 23.9301 18.5627 23.9301 17.1382C23.9301 15.7137 24.1983 14.391 24.7348 13.17C25.2898 11.949 26.0298 10.8945 26.9548 10.0065C27.8798 9.10006 28.962 8.39707 30.2015 7.89757C31.4595 7.37958 32.7915 7.12058 34.1974 7.12058C35.6034 7.12058 36.9262 7.37958 38.1656 7.89757C39.4236 8.39707 40.5151 9.10006 41.4401 10.0065C42.3836 10.8945 43.1236 11.949 43.6601 13.17C44.2151 14.391 44.4926 15.7137 44.4926 17.1382C44.4926 18.5627 44.2151 19.8854 43.6601 21.1064C43.1236 22.3274 42.3836 23.3911 41.4401 24.2976C40.5151 25.1856 39.4236 25.8886 38.1656 26.4066C36.9262 26.9061 35.6034 27.1558 34.1974 27.1558ZM34.1974 23.4651C35.1039 23.4651 35.9272 23.3079 36.6672 22.9934C37.4256 22.6604 38.0731 22.2071 38.6096 21.6337C39.1646 21.0602 39.5901 20.3942 39.8861 19.6357C40.2006 18.8587 40.3579 18.0262 40.3579 17.1382C40.3579 16.2502 40.2006 15.427 39.8861 14.6685C39.5901 13.8915 39.1646 13.2163 38.6096 12.6428C38.0731 12.0693 37.4256 11.6253 36.6672 11.3108C35.9272 10.9778 35.1039 10.8113 34.1974 10.8113C33.3094 10.8113 32.4862 10.9778 31.7277 11.3108C30.9692 11.6438 30.3217 12.097 29.7852 12.6705C29.2487 13.2255 28.8233 13.8915 28.5088 14.6685C28.2128 15.427 28.0648 16.2502 28.0648 17.1382C28.0648 18.0262 28.2128 18.8587 28.5088 19.6357C28.8233 20.3942 29.2487 21.0602 29.7852 21.6337C30.3217 22.1886 30.9692 22.6326 31.7277 22.9656C32.4862 23.2986 33.3094 23.4651 34.1974 23.4651ZM58.4214 26.8506H54.5364C54.0924 26.8506 53.6762 26.7303 53.2877 26.4898C52.9177 26.2308 52.6494 25.8886 52.4829 25.4631L45.2958 7.42583H49.6247L55.7296 22.7714L61.3351 8.84106C61.5016 8.41557 61.7698 8.07332 62.1398 7.81432C62.5283 7.55533 62.9446 7.42583 63.3886 7.42583H66.2468L58.4214 26.8506ZM75.5689 11.3663L69.4362 26.8506H65.1073L72.8217 7.42583H76.7899C77.2339 7.42583 77.6409 7.55533 78.0109 7.81432C78.3994 8.05482 78.6769 8.38782 78.8434 8.81331L85.9195 26.8506H81.5906L75.5689 11.3663Z" fill="white"/>
<path d="M14.1432 35.0229H0.866476" stroke="white" stroke-width="0.837274" stroke-linecap="round"/>
<path d="M23.8429 38.115C23.3685 38.115 22.9052 38.0257 22.4531 37.8471C22.0009 37.6629 21.5991 37.4089 21.2474 37.0852C21.2921 37.0405 21.3479 36.9819 21.4149 36.9094C21.4818 36.8368 21.5516 36.767 21.6242 36.7001C21.6967 36.6275 21.7721 36.5661 21.8502 36.5159C21.9284 36.4656 22.0009 36.4405 22.0679 36.4405C22.1293 36.4405 22.2158 36.474 22.3275 36.541C22.4391 36.6024 22.5731 36.6749 22.7294 36.7587C22.8857 36.8368 23.0643 36.9094 23.2652 36.9764C23.4662 37.0378 23.6867 37.0685 23.9267 37.0685C24.0439 37.0685 24.1695 37.0573 24.3035 37.035C24.443 37.0126 24.5742 36.9764 24.697 36.9261C24.8198 36.8703 24.9202 36.7949 24.9984 36.7001C25.0821 36.6052 25.124 36.4852 25.124 36.34C25.124 36.1726 25.071 36.0414 24.9649 35.9465C24.8588 35.846 24.7193 35.7707 24.5463 35.7204C24.3788 35.6646 24.1834 35.6228 23.9602 35.5949C23.7425 35.5614 23.5192 35.5251 23.2903 35.486C23.0671 35.4469 22.8438 35.3967 22.6205 35.3353C22.4028 35.2739 22.2075 35.1846 22.0344 35.0674C21.867 34.9446 21.7302 34.7883 21.6242 34.5985C21.5181 34.4087 21.4651 34.1687 21.4651 33.8784C21.4651 33.5491 21.5321 33.2728 21.666 33.0495C21.8056 32.8207 21.9842 32.6365 22.2019 32.4969C22.4196 32.3518 22.6652 32.2485 22.9387 32.1871C23.2178 32.1202 23.4969 32.0867 23.776 32.0867C24.2002 32.0867 24.6244 32.1592 25.0486 32.3044C25.4784 32.4495 25.8608 32.6588 26.1957 32.9323C26.1455 32.9826 26.0868 33.0468 26.0199 33.1249C25.9529 33.203 25.8803 33.2784 25.8022 33.351C25.7296 33.4179 25.6543 33.4793 25.5761 33.5352C25.498 33.5854 25.4198 33.6105 25.3417 33.6105C25.2914 33.6105 25.2133 33.5854 25.1072 33.5352C25.0012 33.4849 24.8756 33.4319 24.7305 33.3761C24.5853 33.3147 24.4235 33.2589 24.2448 33.2086C24.0718 33.1584 23.8876 33.1333 23.6922 33.1333C23.5918 33.1333 23.4773 33.1444 23.349 33.1668C23.2262 33.1835 23.1089 33.217 22.9973 33.2672C22.8912 33.3119 22.8019 33.3761 22.7294 33.4598C22.6568 33.5435 22.6205 33.6524 22.6205 33.7863C22.6205 33.9426 22.6736 34.0654 22.7796 34.1547C22.8857 34.2441 23.0252 34.3138 23.1982 34.3641C23.3713 34.4143 23.5666 34.4562 23.7843 34.4897C24.0076 34.5176 24.2337 34.5511 24.4625 34.5901C24.697 34.6292 24.923 34.6822 25.1407 34.7492C25.364 34.8106 25.5622 34.9027 25.7352 35.0255C25.9082 35.1483 26.0478 35.3074 26.1538 35.5028C26.2599 35.6925 26.3129 35.9353 26.3129 36.2312C26.3129 36.5717 26.2376 36.8619 26.0868 37.1019C25.9417 37.342 25.7519 37.5373 25.5175 37.688C25.2831 37.8387 25.0179 37.9476 24.7221 38.0146C24.4318 38.0816 24.1388 38.115 23.8429 38.115ZM31.9412 38.115C31.517 38.115 31.1151 38.0425 30.7355 37.8974C30.356 37.7466 30.0239 37.5373 29.7392 37.2694C29.4545 37.0015 29.2285 36.6833 29.061 36.3149C28.8991 35.9465 28.8182 35.5446 28.8182 35.1092C28.8182 34.6739 28.8991 34.272 29.061 33.9036C29.2285 33.5296 29.4545 33.2086 29.7392 32.9407C30.0239 32.6672 30.356 32.4551 30.7355 32.3044C31.1151 32.1537 31.517 32.0783 31.9412 32.0783C32.3989 32.0783 32.8427 32.1732 33.2725 32.363C33.7023 32.5472 34.0679 32.8151 34.3693 33.1668C34.3191 33.2003 34.2521 33.2477 34.1684 33.3091C34.0902 33.3705 34.0065 33.4319 33.9172 33.4933C33.8335 33.5491 33.7497 33.5994 33.666 33.644C33.5823 33.6887 33.5097 33.711 33.4483 33.711C33.3869 33.711 33.3116 33.6859 33.2223 33.6356C33.1385 33.5798 33.0353 33.5184 32.9125 33.4514C32.7897 33.3845 32.6473 33.3258 32.4854 33.2756C32.3292 33.2198 32.1477 33.1919 31.9412 33.1919C31.6733 33.1919 31.4249 33.2421 31.196 33.3426C30.9672 33.4431 30.769 33.5798 30.6016 33.7529C30.4341 33.9203 30.303 34.1213 30.2081 34.3557C30.1132 34.5901 30.0657 34.8413 30.0657 35.1092C30.0657 35.3772 30.1132 35.6283 30.2081 35.8628C30.3085 36.0916 30.4453 36.2898 30.6183 36.4572C30.7914 36.6247 30.9923 36.7587 31.2212 36.8591C31.4556 36.954 31.7068 37.0015 31.9747 37.0015C32.1757 37.0015 32.3543 36.9764 32.5106 36.9261C32.6669 36.8759 32.8036 36.8201 32.9208 36.7587C33.038 36.6917 33.1385 36.6331 33.2223 36.5828C33.3116 36.5326 33.3869 36.5075 33.4483 36.5075C33.5097 36.5075 33.5795 36.5298 33.6576 36.5745C33.7414 36.6135 33.8251 36.6638 33.9088 36.7252C33.9925 36.781 34.0735 36.8396 34.1516 36.901C34.2298 36.9624 34.294 37.0098 34.3442 37.0433C34.1991 37.2108 34.0344 37.3615 33.8502 37.4955C33.666 37.6294 33.4679 37.7439 33.2557 37.8387C33.0492 37.9281 32.8343 37.995 32.611 38.0397C32.3878 38.0899 32.1645 38.115 31.9412 38.115ZM42.0557 38.0229H40.8416V35.6283H38.5643L38.8908 34.8497C38.9187 34.7827 38.9689 34.7269 39.0415 34.6822C39.1141 34.632 39.195 34.6069 39.2843 34.6069H40.6323C40.7719 34.6069 40.8416 34.5287 40.8416 34.3724V32.162H41.6371C41.7487 32.162 41.8464 32.2039 41.9301 32.2876C42.0138 32.3713 42.0557 32.469 42.0557 32.5807V38.0229ZM38.1456 38.0229H36.9316V32.162H38.1456V38.0229ZM47.8819 38.115C47.4577 38.115 47.0558 38.0397 46.6763 37.889C46.3023 37.7327 45.9757 37.5206 45.6967 37.2527C45.4176 36.9791 45.1943 36.6582 45.0268 36.2898C44.865 35.9214 44.784 35.5223 44.784 35.0925C44.784 34.6627 44.865 34.2636 45.0268 33.8952C45.1943 33.5268 45.4176 33.2086 45.6967 32.9407C45.9757 32.6672 46.3023 32.4551 46.6763 32.3044C47.0558 32.1481 47.4577 32.0699 47.8819 32.0699C48.3062 32.0699 48.7053 32.1481 49.0792 32.3044C49.4588 32.4551 49.7881 32.6672 50.0672 32.9407C50.3519 33.2086 50.5752 33.5268 50.737 33.8952C50.9045 34.2636 50.9882 34.6627 50.9882 35.0925C50.9882 35.5223 50.9045 35.9214 50.737 36.2898C50.5752 36.6582 50.3519 36.9791 50.0672 37.2527C49.7881 37.5206 49.4588 37.7327 49.0792 37.889C48.7053 38.0397 48.3062 38.115 47.8819 38.115ZM47.8819 37.0015C48.1554 37.0015 48.4038 36.954 48.6271 36.8591C48.856 36.7587 49.0513 36.6219 49.2132 36.4489C49.3807 36.2758 49.509 36.0749 49.5983 35.846C49.6932 35.6116 49.7407 35.3604 49.7407 35.0925C49.7407 34.8246 49.6932 34.5762 49.5983 34.3473C49.509 34.1129 49.3807 33.9091 49.2132 33.7361C49.0513 33.5631 48.856 33.4291 48.6271 33.3342C48.4038 33.2337 48.1554 33.1835 47.8819 33.1835C47.614 33.1835 47.3656 33.2337 47.1368 33.3342C46.9079 33.4347 46.7125 33.5714 46.5507 33.7445C46.3888 33.9119 46.2604 34.1129 46.1655 34.3473C46.0762 34.5762 46.0316 34.8246 46.0316 35.0925C46.0316 35.3604 46.0762 35.6116 46.1655 35.846C46.2604 36.0749 46.3888 36.2758 46.5507 36.4489C46.7125 36.6163 46.9079 36.7503 47.1368 36.8508C47.3656 36.9512 47.614 37.0015 47.8819 37.0015ZM56.6619 38.115C56.2376 38.115 55.8358 38.0397 55.4562 37.889C55.0822 37.7327 54.7557 37.5206 54.4766 37.2527C54.1975 36.9791 53.9742 36.6582 53.8068 36.2898C53.6449 35.9214 53.564 35.5223 53.564 35.0925C53.564 34.6627 53.6449 34.2636 53.8068 33.8952C53.9742 33.5268 54.1975 33.2086 54.4766 32.9407C54.7557 32.6672 55.0822 32.4551 55.4562 32.3044C55.8358 32.1481 56.2376 32.0699 56.6619 32.0699C57.0861 32.0699 57.4852 32.1481 57.8592 32.3044C58.2387 32.4551 58.5681 32.6672 58.8472 32.9407C59.1318 33.2086 59.3551 33.5268 59.517 33.8952C59.6844 34.2636 59.7682 34.6627 59.7682 35.0925C59.7682 35.5223 59.6844 35.9214 59.517 36.2898C59.3551 36.6582 59.1318 36.9791 58.8472 37.2527C58.5681 37.5206 58.2387 37.7327 57.8592 37.889C57.4852 38.0397 57.0861 38.115 56.6619 38.115ZM56.6619 37.0015C56.9354 37.0015 57.1838 36.954 57.407 36.8591C57.6359 36.7587 57.8313 36.6219 57.9931 36.4489C58.1606 36.2758 58.289 36.0749 58.3783 35.846C58.4732 35.6116 58.5206 35.3604 58.5206 35.0925C58.5206 34.8246 58.4732 34.5762 58.3783 34.3473C58.289 34.1129 58.1606 33.9091 57.9931 33.7361C57.8313 33.5631 57.6359 33.4291 57.407 33.3342C57.1838 33.2337 56.9354 33.1835 56.6619 33.1835C56.3939 33.1835 56.1455 33.2337 55.9167 33.3342C55.6878 33.4347 55.4925 33.5714 55.3306 33.7445C55.1687 33.9119 55.0403 34.1129 54.9455 34.3473C54.8561 34.5762 54.8115 34.8246 54.8115 35.0925C54.8115 35.3604 54.8561 35.6116 54.9455 35.846C55.0403 36.0749 55.1687 36.2758 55.3306 36.4489C55.4925 36.6163 55.6878 36.7503 55.9167 36.8508C56.1455 36.9512 56.3939 37.0015 56.6619 37.0015ZM66.2121 38.0229H62.4946V32.162H63.29C63.4016 32.162 63.4993 32.2039 63.583 32.2876C63.6668 32.3713 63.7086 32.469 63.7086 32.5807V36.9512H66.9154L66.5972 37.755C66.5693 37.8332 66.5191 37.8974 66.4465 37.9476C66.374 37.9978 66.2958 38.0229 66.2121 38.0229Z" fill="white"/>
<path d="M86.8665 35.0229H73.5897" stroke="white" stroke-width="0.837274" stroke-linecap="round"/>
</g>
<path d="M108.855 14.202V16.282H100.183V5.08198H108.647V7.16198H102.759V9.59398H107.959V11.61H102.759V14.202H108.855ZM115.974 7.54598C117.041 7.54598 117.899 7.86598 118.55 8.50598C119.211 9.14598 119.542 10.0953 119.542 11.354V16.282H117.046V11.738C117.046 11.0553 116.897 10.5486 116.598 10.218C116.299 9.87665 115.867 9.70598 115.302 9.70598C114.673 9.70598 114.171 9.90332 113.798 10.298C113.425 10.682 113.238 11.258 113.238 12.026V16.282H110.742V7.67398H113.126V8.68198C113.457 8.31932 113.867 8.04198 114.358 7.84998C114.849 7.64732 115.387 7.54598 115.974 7.54598ZM130.778 7.67398V14.842C130.778 16.4206 130.367 17.594 129.546 18.362C128.725 19.13 127.525 19.514 125.946 19.514C125.114 19.514 124.325 19.4126 123.578 19.21C122.831 19.0073 122.213 18.714 121.722 18.33L122.714 16.538C123.077 16.8366 123.535 17.0713 124.09 17.242C124.645 17.4233 125.199 17.514 125.754 17.514C126.618 17.514 127.253 17.3166 127.658 16.922C128.074 16.538 128.282 15.9513 128.282 15.162V14.794C127.631 15.5086 126.725 15.866 125.562 15.866C124.773 15.866 124.047 15.6953 123.386 15.354C122.735 15.002 122.218 14.5113 121.834 13.882C121.45 13.2526 121.258 12.5273 121.258 11.706C121.258 10.8846 121.45 10.1593 121.834 9.52998C122.218 8.90065 122.735 8.41532 123.386 8.07398C124.047 7.72198 124.773 7.54598 125.562 7.54598C126.81 7.54598 127.759 7.95665 128.41 8.77798V7.67398H130.778ZM126.058 13.818C126.719 13.818 127.258 13.626 127.674 13.242C128.101 12.8473 128.314 12.3353 128.314 11.706C128.314 11.0766 128.101 10.57 127.674 10.186C127.258 9.79132 126.719 9.59398 126.058 9.59398C125.397 9.59398 124.853 9.79132 124.426 10.186C123.999 10.57 123.786 11.0766 123.786 11.706C123.786 12.3353 123.999 12.8473 124.426 13.242C124.853 13.626 125.397 13.818 126.058 13.818ZM133.101 4.40998H135.597V16.282H133.101V4.40998ZM137.914 7.67398H140.41V16.282H137.914V7.67398ZM139.162 6.47398C138.703 6.47398 138.33 6.34065 138.042 6.07398C137.754 5.80732 137.61 5.47665 137.61 5.08198C137.61 4.68731 137.754 4.35665 138.042 4.08998C138.33 3.82331 138.703 3.68998 139.162 3.68998C139.62 3.68998 139.994 3.81798 140.282 4.07398C140.57 4.32998 140.714 4.64998 140.714 5.03398C140.714 5.44998 140.57 5.79665 140.282 6.07398C139.994 6.34065 139.62 6.47398 139.162 6.47398ZM145.622 16.41C144.908 16.41 144.209 16.3246 143.526 16.154C142.844 15.9726 142.3 15.7486 141.894 15.482L142.726 13.69C143.11 13.9353 143.574 14.138 144.118 14.298C144.662 14.4473 145.196 14.522 145.718 14.522C146.774 14.522 147.302 14.2606 147.302 13.738C147.302 13.4926 147.158 13.3166 146.87 13.21C146.582 13.1033 146.14 13.0126 145.542 12.938C144.838 12.8313 144.257 12.7086 143.798 12.57C143.34 12.4313 142.94 12.186 142.598 11.834C142.268 11.482 142.102 10.9806 142.102 10.33C142.102 9.78598 142.257 9.30598 142.566 8.88998C142.886 8.46332 143.345 8.13265 143.942 7.89798C144.55 7.66332 145.265 7.54598 146.086 7.54598C146.694 7.54598 147.297 7.61532 147.894 7.75398C148.502 7.88198 149.004 8.06332 149.398 8.29798L148.566 10.074C147.809 9.64732 146.982 9.43398 146.086 9.43398C145.553 9.43398 145.153 9.50865 144.886 9.65798C144.62 9.80732 144.486 9.99932 144.486 10.234C144.486 10.5006 144.63 10.6873 144.918 10.794C145.206 10.9006 145.665 11.002 146.294 11.098C146.998 11.2153 147.574 11.3433 148.022 11.482C148.47 11.61 148.86 11.85 149.19 12.202C149.521 12.554 149.686 13.0446 149.686 13.674C149.686 14.2073 149.526 14.682 149.206 15.098C148.886 15.514 148.417 15.8393 147.798 16.074C147.19 16.298 146.465 16.41 145.622 16.41ZM156.458 7.54598C157.525 7.54598 158.384 7.86598 159.034 8.50598C159.696 9.14598 160.026 10.0953 160.026 11.354V16.282H157.53V11.738C157.53 11.0553 157.381 10.5486 157.082 10.218C156.784 9.87665 156.352 9.70598 155.786 9.70598C155.157 9.70598 154.656 9.90332 154.282 10.298C153.909 10.682 153.722 11.258 153.722 12.026V16.282H151.226V4.40998H153.722V8.56998C154.053 8.23932 154.453 7.98865 154.922 7.81798C155.392 7.63665 155.904 7.54598 156.458 7.54598ZM169.556 7.86598H171.764V9.78598H169.62V16.282H167.124V9.78598H165.796V7.86598H167.124V7.48198C167.124 6.50065 167.412 5.72198 167.988 5.14598C168.575 4.56998 169.396 4.28198 170.452 4.28198C170.825 4.28198 171.177 4.32465 171.508 4.40998C171.849 4.48465 172.132 4.59665 172.356 4.74598L171.7 6.55398C171.412 6.35132 171.076 6.24998 170.692 6.24998C169.935 6.24998 169.556 6.66598 169.556 7.49798V7.86598ZM176.994 16.41C176.087 16.41 175.271 16.2233 174.546 15.85C173.831 15.466 173.271 14.938 172.866 14.266C172.461 13.594 172.258 12.8313 172.258 11.978C172.258 11.1246 172.461 10.362 172.866 9.68998C173.271 9.01798 173.831 8.49532 174.546 8.12198C175.271 7.73798 176.087 7.54598 176.994 7.54598C177.901 7.54598 178.711 7.73798 179.426 8.12198C180.141 8.49532 180.701 9.01798 181.106 9.68998C181.511 10.362 181.714 11.1246 181.714 11.978C181.714 12.8313 181.511 13.594 181.106 14.266C180.701 14.938 180.141 15.466 179.426 15.85C178.711 16.2233 177.901 16.41 176.994 16.41ZM176.994 14.362C177.634 14.362 178.157 14.1486 178.562 13.722C178.978 13.2846 179.186 12.7033 179.186 11.978C179.186 11.2526 178.978 10.6766 178.562 10.25C178.157 9.81265 177.634 9.59398 176.994 9.59398C176.354 9.59398 175.826 9.81265 175.41 10.25C174.994 10.6766 174.786 11.2526 174.786 11.978C174.786 12.7033 174.994 13.2846 175.41 13.722C175.826 14.1486 176.354 14.362 176.994 14.362ZM185.766 8.80998C186.065 8.39398 186.465 8.07932 186.966 7.86598C187.478 7.65265 188.065 7.54598 188.726 7.54598V9.84998C188.449 9.82865 188.262 9.81798 188.166 9.81798C187.452 9.81798 186.892 10.0206 186.486 10.426C186.081 10.8206 185.878 11.418 185.878 12.218V16.282H183.382V7.67398H185.766V8.80998ZM200.34 16.474C199.199 16.474 198.164 16.2286 197.236 15.738C196.319 15.2366 195.594 14.5486 195.06 13.674C194.538 12.7886 194.276 11.7913 194.276 10.682C194.276 9.57265 194.538 8.58065 195.06 7.70598C195.594 6.82065 196.319 6.13265 197.236 5.64198C198.164 5.14065 199.204 4.88998 200.356 4.88998C201.327 4.88998 202.202 5.06065 202.98 5.40198C203.77 5.74332 204.431 6.23398 204.964 6.87398L203.3 8.40998C202.543 7.53532 201.604 7.09798 200.484 7.09798C199.791 7.09798 199.172 7.25265 198.628 7.56198C198.084 7.86065 197.658 8.28198 197.348 8.82598C197.05 9.36998 196.9 9.98865 196.9 10.682C196.9 11.3753 197.05 11.994 197.348 12.538C197.658 13.082 198.084 13.5086 198.628 13.818C199.172 14.1166 199.791 14.266 200.484 14.266C201.604 14.266 202.543 13.8233 203.3 12.938L204.964 14.474C204.431 15.1246 203.77 15.6206 202.98 15.962C202.191 16.3033 201.311 16.474 200.34 16.474ZM209.948 7.54598C211.282 7.54598 212.306 7.86598 213.02 8.50598C213.735 9.13532 214.092 10.09 214.092 11.37V16.282H211.756V15.21C211.287 16.01 210.412 16.41 209.132 16.41C208.471 16.41 207.895 16.298 207.404 16.074C206.924 15.85 206.556 15.5406 206.3 15.146C206.044 14.7513 205.916 14.3033 205.916 13.802C205.916 13.002 206.215 12.3726 206.812 11.914C207.42 11.4553 208.354 11.226 209.612 11.226H211.596C211.596 10.682 211.431 10.266 211.1 9.97798C210.77 9.67932 210.274 9.52998 209.612 9.52998C209.154 9.52998 208.7 9.60465 208.252 9.75398C207.815 9.89265 207.442 10.0846 207.132 10.33L206.236 8.58598C206.706 8.25532 207.266 7.99932 207.916 7.81798C208.578 7.63665 209.255 7.54598 209.948 7.54598ZM209.756 14.73C210.183 14.73 210.562 14.634 210.892 14.442C211.223 14.2393 211.458 13.946 211.596 13.562V12.682H209.884C208.86 12.682 208.348 13.018 208.348 13.69C208.348 14.01 208.471 14.266 208.716 14.458C208.972 14.6393 209.319 14.73 209.756 14.73ZM218.735 8.80998C219.034 8.39398 219.434 8.07932 219.935 7.86598C220.447 7.65265 221.034 7.54598 221.695 7.54598V9.84998C221.418 9.82865 221.231 9.81798 221.135 9.81798C220.421 9.81798 219.861 10.0206 219.455 10.426C219.05 10.8206 218.847 11.418 218.847 12.218V16.282H216.351V7.67398H218.735V8.80998ZM231.533 12.01C231.533 12.042 231.517 12.266 231.485 12.682H224.973C225.091 13.2153 225.368 13.6366 225.805 13.946C226.243 14.2553 226.787 14.41 227.437 14.41C227.885 14.41 228.28 14.346 228.621 14.218C228.973 14.0793 229.299 13.866 229.597 13.578L230.925 15.018C230.115 15.946 228.931 16.41 227.373 16.41C226.403 16.41 225.544 16.2233 224.797 15.85C224.051 15.466 223.475 14.938 223.069 14.266C222.664 13.594 222.461 12.8313 222.461 11.978C222.461 11.1353 222.659 10.378 223.053 9.70598C223.459 9.02332 224.008 8.49532 224.701 8.12198C225.405 7.73798 226.189 7.54598 227.053 7.54598C227.896 7.54598 228.659 7.72732 229.341 8.08998C230.024 8.45265 230.557 8.97532 230.941 9.65798C231.336 10.33 231.533 11.114 231.533 12.01ZM227.069 9.43398C226.504 9.43398 226.029 9.59398 225.645 9.91398C225.261 10.234 225.027 10.6713 224.941 11.226H229.181C229.096 10.682 228.861 10.25 228.477 9.92998C228.093 9.59932 227.624 9.43398 227.069 9.43398ZM241.627 12.01C241.627 12.042 241.611 12.266 241.579 12.682H235.067C235.184 13.2153 235.462 13.6366 235.899 13.946C236.336 14.2553 236.88 14.41 237.531 14.41C237.979 14.41 238.374 14.346 238.715 14.218C239.067 14.0793 239.392 13.866 239.691 13.578L241.019 15.018C240.208 15.946 239.024 16.41 237.467 16.41C236.496 16.41 235.638 16.2233 234.891 15.85C234.144 15.466 233.568 14.938 233.163 14.266C232.758 13.594 232.555 12.8313 232.555 11.978C232.555 11.1353 232.752 10.378 233.147 9.70598C233.552 9.02332 234.102 8.49532 234.795 8.12198C235.499 7.73798 236.283 7.54598 237.147 7.54598C237.99 7.54598 238.752 7.72732 239.435 8.08998C240.118 8.45265 240.651 8.97532 241.035 9.65798C241.43 10.33 241.627 11.114 241.627 12.01ZM237.163 9.43398C236.598 9.43398 236.123 9.59398 235.739 9.91398C235.355 10.234 235.12 10.6713 235.035 11.226H239.275C239.19 10.682 238.955 10.25 238.571 9.92998C238.187 9.59932 237.718 9.43398 237.163 9.43398ZM245.673 8.80998C245.971 8.39398 246.371 8.07932 246.873 7.86598C247.385 7.65265 247.971 7.54598 248.633 7.54598V9.84998C248.355 9.82865 248.169 9.81798 248.073 9.81798C247.358 9.81798 246.798 10.0206 246.393 10.426C245.987 10.8206 245.785 11.418 245.785 12.218V16.282H243.289V7.67398H245.673V8.80998ZM263.495 16.474L262.151 15.226C261.084 16.058 259.836 16.474 258.407 16.474C257.596 16.474 256.865 16.346 256.215 16.09C255.564 15.8233 255.052 15.4553 254.679 14.986C254.316 14.5166 254.135 13.9886 254.135 13.402C254.135 12.7086 254.327 12.1006 254.711 11.578C255.105 11.0446 255.735 10.538 256.599 10.058C256.193 9.64198 255.9 9.24732 255.719 8.87398C255.537 8.48998 255.447 8.09532 255.447 7.68998C255.447 7.14598 255.591 6.66598 255.879 6.24998C256.167 5.83398 256.572 5.51398 257.095 5.28998C257.628 5.05532 258.241 4.93798 258.935 4.93798C259.905 4.93798 260.684 5.17265 261.271 5.64198C261.857 6.10065 262.151 6.72465 262.151 7.51398C262.151 8.08998 261.975 8.60198 261.623 9.04998C261.281 9.49798 260.727 9.92998 259.959 10.346L262.007 12.25C262.252 11.738 262.439 11.1566 262.567 10.506L264.567 11.13C264.353 12.122 264.012 12.97 263.543 13.674L264.855 14.89L263.495 16.474ZM258.935 6.63398C258.561 6.63398 258.263 6.72998 258.039 6.92198C257.825 7.11398 257.719 7.35932 257.719 7.65798C257.719 7.88198 257.777 8.09532 257.895 8.29798C258.012 8.48998 258.241 8.75132 258.583 9.08198C259.127 8.79398 259.505 8.53798 259.719 8.31398C259.932 8.07932 260.039 7.82865 260.039 7.56198C260.039 7.28465 259.943 7.06065 259.751 6.88998C259.559 6.71932 259.287 6.63398 258.935 6.63398ZM258.583 14.522C259.361 14.522 260.06 14.3033 260.679 13.866L257.975 11.338C257.473 11.626 257.116 11.9086 256.903 12.186C256.689 12.4633 256.583 12.778 256.583 13.13C256.583 13.546 256.764 13.882 257.127 14.138C257.489 14.394 257.975 14.522 258.583 14.522Z" fill="#E8E8E8"/>
<path d="M115.884 25.082L112.108 36.282H110.86L107.58 26.73L104.284 36.282H103.052L99.2756 25.082H100.492L103.724 34.714L107.068 25.082H108.172L111.468 34.762L114.748 25.082H115.884ZM120.614 36.362C119.803 36.362 119.073 36.1806 118.422 35.818C117.771 35.4446 117.259 34.9326 116.886 34.282C116.513 33.6313 116.326 32.8953 116.326 32.074C116.326 31.2526 116.513 30.5166 116.886 29.866C117.259 29.2153 117.771 28.7086 118.422 28.346C119.073 27.9833 119.803 27.802 120.614 27.802C121.425 27.802 122.155 27.9833 122.806 28.346C123.457 28.7086 123.963 29.2153 124.326 29.866C124.699 30.5166 124.886 31.2526 124.886 32.074C124.886 32.8953 124.699 33.6313 124.326 34.282C123.963 34.9326 123.457 35.4446 122.806 35.818C122.155 36.1806 121.425 36.362 120.614 36.362ZM120.614 35.354C121.211 35.354 121.745 35.2206 122.214 34.954C122.694 34.6766 123.067 34.2873 123.334 33.786C123.601 33.2846 123.734 32.714 123.734 32.074C123.734 31.434 123.601 30.8633 123.334 30.362C123.067 29.8606 122.694 29.4766 122.214 29.21C121.745 28.9326 121.211 28.794 120.614 28.794C120.017 28.794 119.478 28.9326 118.998 29.21C118.529 29.4766 118.155 29.8606 117.878 30.362C117.611 30.8633 117.478 31.434 117.478 32.074C117.478 32.714 117.611 33.2846 117.878 33.786C118.155 34.2873 118.529 34.6766 118.998 34.954C119.478 35.2206 120.017 35.354 120.614 35.354ZM128.293 29.514C128.56 28.9486 128.954 28.522 129.477 28.234C130.01 27.946 130.666 27.802 131.445 27.802V28.906L131.173 28.89C130.288 28.89 129.594 29.162 129.093 29.706C128.592 30.25 128.341 31.0126 128.341 31.994V36.282H127.205V27.866H128.293V29.514ZM136.622 32.058L134.638 33.882V36.282H133.502V24.41H134.638V32.458L139.662 27.866H141.07L137.47 31.306L141.406 36.282H140.014L136.622 32.058ZM147.539 25.082H148.723V35.258H154.995V36.282H147.539V25.082ZM156.721 27.866H157.857V36.282H156.721V27.866ZM157.297 26.026C157.062 26.026 156.865 25.946 156.705 25.786C156.545 25.626 156.465 25.434 156.465 25.21C156.465 24.9966 156.545 24.81 156.705 24.65C156.865 24.49 157.062 24.41 157.297 24.41C157.531 24.41 157.729 24.49 157.889 24.65C158.049 24.7993 158.129 24.9806 158.129 25.194C158.129 25.4286 158.049 25.626 157.889 25.786C157.729 25.946 157.531 26.026 157.297 26.026ZM163.802 25.29C163.311 25.29 162.938 25.4233 162.682 25.69C162.436 25.9566 162.314 26.3513 162.314 26.874V27.866H164.906V28.826H162.346V36.282H161.21V28.826H159.706V27.866H161.21V26.826C161.21 26.058 161.428 25.45 161.866 25.002C162.314 24.554 162.943 24.33 163.754 24.33C164.074 24.33 164.383 24.378 164.682 24.474C164.98 24.5593 165.231 24.6873 165.434 24.858L165.05 25.706C164.719 25.4286 164.303 25.29 163.802 25.29ZM173.627 32.426H166.587C166.651 33.3006 166.987 34.01 167.595 34.554C168.203 35.0873 168.971 35.354 169.899 35.354C170.422 35.354 170.902 35.2633 171.339 35.082C171.776 34.89 172.155 34.6126 172.475 34.25L173.115 34.986C172.742 35.434 172.272 35.7753 171.707 36.01C171.152 36.2446 170.539 36.362 169.867 36.362C169.003 36.362 168.235 36.1806 167.563 35.818C166.902 35.4446 166.384 34.9326 166.011 34.282C165.638 33.6313 165.451 32.8953 165.451 32.074C165.451 31.2526 165.627 30.5166 165.979 29.866C166.342 29.2153 166.832 28.7086 167.451 28.346C168.08 27.9833 168.784 27.802 169.563 27.802C170.342 27.802 171.04 27.9833 171.659 28.346C172.278 28.7086 172.763 29.2153 173.115 29.866C173.467 30.506 173.643 31.242 173.643 32.074L173.627 32.426ZM169.563 28.778C168.752 28.778 168.07 29.0393 167.515 29.562C166.971 30.074 166.662 30.746 166.587 31.578H172.555C172.48 30.746 172.166 30.074 171.611 29.562C171.067 29.0393 170.384 28.778 169.563 28.778Z" fill="#E8E8E8"/>
<defs>
<clipPath id="clip0_304_4351">
<rect width="85.9227" height="40" fill="white" transform="translate(0.604614 0.281982)"/>
</clipPath>
</defs>
</svg>
